<svg width="183" height="190" viewBox="0 0 183 190" fill="none" xmlns="http://www.w3.org/2000/svg">
<path d="M129.436 186.588C133.728 186.739 138.021 186.655 142.314 186.571C148.124 186.466 153.938 186.36 159.753 186.254C165.92 186.142 172.088 186.03 178.251 185.917C180.112 185.883 182.527 185.481 182.661 184.056C182.778 182.781 180.884 181.976 179.29 181.591C173.555 180.232 167.519 179.964 161.565 179.729C152.795 179.394 144.025 179.109 135.254 178.891C129.771 178.756 124.153 178.656 119.055 180.065C116.272 180.836 112.163 184.106 116.59 185.699C117.404 185.989 118.773 185.998 119.989 186.005C120.603 186.009 121.177 186.012 121.621 186.051C124.203 186.303 126.82 186.504 129.436 186.588Z" fill="url(#paint0_linear_201_785)"/>
<path d="M129.436 186.588C133.728 186.739 138.021 186.655 142.314 186.571C148.124 186.466 153.938 186.36 159.753 186.254C165.92 186.142 172.088 186.03 178.251 185.917C180.112 185.883 182.527 185.481 182.661 184.056C182.778 182.781 180.884 181.976 179.29 181.591C173.555 180.232 167.519 179.964 161.565 179.729C152.795 179.394 144.025 179.109 135.254 178.891C129.771 178.756 124.153 178.656 119.055 180.065C116.272 180.836 112.163 184.106 116.59 185.699C117.404 185.989 118.773 185.998 119.989 186.005C120.603 186.009 121.177 186.012 121.621 186.051C124.203 186.303 126.82 186.504 129.436 186.588Z" stroke="black"/>
<path d="M129.429 186.588C133.722 186.739 138.015 186.655 142.308 186.571C148.295 186.462 154.286 186.353 160.277 186.244C166.267 186.135 172.258 186.026 178.244 185.917C180.105 185.883 182.52 185.481 182.654 184.056C182.772 182.781 180.877 181.976 179.284 181.591C173.549 180.232 167.512 179.964 161.559 179.729C152.788 179.394 144.018 179.109 135.248 178.891C129.764 178.756 124.147 178.656 119.049 180.065C116.265 180.836 112.156 184.106 116.583 185.699C117.397 185.989 118.767 185.998 119.983 186.005C120.596 186.009 121.17 186.012 121.614 186.051C124.197 186.303 126.813 186.504 129.429 186.588Z" fill="url(#paint1_linear_201_785)"/>
<path d="M129.429 186.588C133.722 186.739 138.015 186.655 142.308 186.571C148.295 186.462 154.286 186.353 160.277 186.244C166.267 186.135 172.258 186.026 178.244 185.917C180.105 185.883 182.52 185.481 182.654 184.056C182.772 182.781 180.877 181.976 179.284 181.591C173.549 180.232 167.512 179.964 161.559 179.729C152.788 179.394 144.018 179.109 135.248 178.891C129.764 178.756 124.147 178.656 119.049 180.065C116.265 180.836 112.156 184.106 116.583 185.699C117.397 185.989 118.767 185.998 119.983 186.005C120.596 186.009 121.17 186.012 121.614 186.051C124.197 186.303 126.813 186.504 129.429 186.588Z" stroke="black"/>
<path d="M151.414 178.123C151.431 178.207 151.448 178.29 151.515 178.358C151.598 178.458 151.749 178.458 151.883 178.458C152.823 178.441 153.778 178.374 154.701 178.207C155.103 178.14 155.589 177.972 155.673 177.569C155.707 177.385 155.64 177.184 155.573 177.016C155.371 176.488 155.17 175.96 154.969 175.432C154.768 174.904 154.566 174.375 154.365 173.847C154.362 173.842 154.36 173.836 154.357 173.83C154.343 173.798 154.326 173.761 154.298 173.746C154.248 173.712 154.181 173.696 154.13 173.696C153.46 173.679 152.789 173.746 152.118 173.88C152.051 173.894 151.975 173.906 151.893 173.92C151.463 173.99 150.879 174.087 150.71 174.467C150.557 174.797 150.712 175.301 150.84 175.715C150.881 175.848 150.92 175.971 150.944 176.077C151.112 176.748 151.263 177.435 151.414 178.123Z" fill="#F9E9DE"/>
<path d="M151.414 178.123C151.431 178.207 151.448 178.29 151.515 178.358C151.598 178.458 151.749 178.458 151.883 178.458C152.823 178.441 153.778 178.374 154.701 178.207C155.103 178.14 155.589 177.972 155.673 177.569C155.707 177.385 155.64 177.184 155.573 177.016C155.371 176.488 155.17 175.96 154.969 175.432C154.768 174.904 154.566 174.375 154.365 173.847C154.362 173.842 154.36 173.836 154.357 173.83C154.343 173.798 154.326 173.761 154.298 173.746C154.248 173.712 154.181 173.696 154.13 173.696C153.46 173.679 152.789 173.746 152.118 173.88C152.051 173.894 151.975 173.906 151.893 173.92C151.463 173.99 150.879 174.087 150.71 174.467C150.557 174.797 150.712 175.301 150.84 175.715C150.881 175.848 150.92 175.971 150.944 176.077C151.112 176.748 151.263 177.435 151.414 178.123Z" stroke="black"/>
<path d="M128.537 178.12C129.443 178.17 130.348 178.221 131.237 178.288C131.321 178.288 131.421 178.288 131.488 178.238C131.558 178.181 131.57 178.101 131.582 178.018C131.584 178.002 131.586 177.985 131.589 177.969C131.639 176.795 131.606 175.622 131.505 174.448C131.505 174.364 131.488 174.263 131.438 174.196C131.372 174.113 131.256 174.08 131.14 174.046L131.136 174.045L131.126 174.043C130.61 173.927 130.093 173.81 129.56 173.81C129.141 173.81 128.655 173.877 128.286 174.095C127.933 174.31 127.959 174.455 128.017 174.785C128.022 174.816 128.028 174.849 128.034 174.884C128.118 175.372 128.188 175.86 128.258 176.349C128.343 176.937 128.427 177.526 128.537 178.12Z" fill="#F9E9DE"/>
<path d="M128.537 178.12C129.443 178.17 130.348 178.221 131.237 178.288C131.321 178.288 131.421 178.288 131.488 178.238C131.558 178.181 131.57 178.101 131.582 178.018C131.584 178.002 131.586 177.985 131.589 177.969C131.639 176.795 131.606 175.622 131.505 174.448C131.505 174.364 131.488 174.263 131.438 174.196C131.372 174.113 131.256 174.08 131.14 174.046L131.136 174.045L131.126 174.043C130.61 173.927 130.093 173.81 129.56 173.81C129.141 173.81 128.655 173.877 128.286 174.095C127.933 174.31 127.959 174.455 128.017 174.785C128.022 174.816 128.028 174.849 128.034 174.884C128.118 175.372 128.188 175.86 128.258 176.349C128.343 176.937 128.427 177.526 128.537 178.12Z" stroke="black"/>
<path d="M149.687 174.468C151.548 174.87 153.527 174.635 155.237 173.814C155.032 173.124 154.842 172.485 154.664 171.887C153.172 166.866 152.535 164.722 150.827 158.922L150.8 158.832C150.205 156.816 149.599 154.766 149.351 152.684C149.049 150.068 149.301 147.419 149.552 144.803C150.037 139.732 150.899 128.805 151.761 117.87C152.626 106.892 153.492 95.9054 153.98 90.823C154.063 89.9677 154.147 89.0957 153.879 88.274C153.165 86.071 147.089 85.5906 144.358 85.3747C144.199 85.3621 144.052 85.3505 143.918 85.3394C143.381 85.2891 139.374 85.2723 138.938 85.5742C138.715 85.7299 137.814 85.6758 136.871 85.6192C135.681 85.5477 134.423 85.4721 134.376 85.8089C133.696 90.4222 134.895 97.9829 136.038 105.188C136.868 110.423 137.669 115.47 137.697 119.062C137.713 121.896 138.854 140.04 139.072 142.874C139.457 147.855 141 153.12 143.08 157.682C145.642 163.318 146.414 165.452 148.18 170.327C148.61 171.515 149.099 172.865 149.687 174.468Z" fill="#97A8B2"/>
<path d="M149.687 174.468C151.548 174.87 153.527 174.635 155.237 173.814C155.032 173.124 154.842 172.485 154.664 171.887C153.172 166.866 152.535 164.722 150.827 158.922L150.8 158.832C150.205 156.816 149.599 154.766 149.351 152.684C149.049 150.068 149.301 147.419 149.552 144.803C150.037 139.732 150.899 128.805 151.761 117.87C152.626 106.892 153.492 95.9054 153.98 90.823C154.063 89.9677 154.147 89.0957 153.879 88.274C153.165 86.071 147.089 85.5906 144.358 85.3747C144.199 85.3621 144.052 85.3505 143.918 85.3394C143.381 85.2891 139.374 85.2723 138.938 85.5742C138.715 85.7299 137.814 85.6758 136.871 85.6192C135.681 85.5477 134.423 85.4721 134.376 85.8089C133.696 90.4222 134.895 97.9829 136.038 105.188C136.868 110.423 137.669 115.47 137.697 119.062C137.713 121.896 138.854 140.04 139.072 142.874C139.457 147.855 141 153.12 143.08 157.682C145.642 163.318 146.414 165.452 148.18 170.327C148.61 171.515 149.099 172.865 149.687 174.468Z" stroke="black"/>
<path d="M135.902 86.7588C135.298 86.2725 129.278 85.8197 128.507 85.8029L118.915 85.9539C118.697 101.448 121.782 143.992 124.75 159.202C125.179 161.407 125.628 163.12 126.036 164.677C126.843 167.751 127.49 170.216 127.501 174.646H131.71C131.945 164.165 133.379 148.004 134.811 131.862C136.234 115.824 137.655 99.8049 137.898 89.3916C137.913 88.3954 136.821 87.5069 136.007 86.8442C135.971 86.8153 135.936 86.7868 135.902 86.7588Z" fill="#97A8B2"/>
<path d="M135.902 86.7588C135.298 86.2725 129.278 85.8197 128.507 85.8029L118.915 85.9539C118.697 101.448 121.782 143.992 124.75 159.202C125.179 161.407 125.628 163.12 126.036 164.677C126.843 167.751 127.49 170.216 127.501 174.646H131.71C131.945 164.165 133.379 148.004 134.811 131.862C136.234 115.824 137.655 99.8049 137.898 89.3916C137.913 88.3954 136.821 87.5069 136.007 86.8442C135.971 86.8153 135.936 86.7868 135.902 86.7588Z" stroke="black"/>
<path d="M130.668 38.1147C129.31 33.6038 124.179 32.9665 123.29 38.7854C122.485 44.051 118.611 55.1187 116.398 60.2836C115.341 62.7655 113.279 64.6772 110.394 65.7504C108.225 66.5558 106.08 67.4164 103.936 68.2768C100.41 69.6915 96.8848 71.1058 93.256 72.2737C93.2728 72.3072 93.2728 72.3239 93.2728 72.3575C92.3002 72.7432 91.2436 72.9444 90.1871 72.9444C89.8479 72.9444 89.5025 72.925 89.1571 72.9056C88.1023 72.8464 87.0467 72.7872 86.1624 73.2798C86.2295 73.4307 86.2966 73.5816 86.3805 73.7493C86.4177 73.7559 86.4546 73.7624 86.4913 73.769C86.7358 73.8125 86.971 73.8543 87.2189 73.8834C86.5481 74.0344 85.8943 74.2859 85.2906 74.6213C84.7037 74.9567 84.1334 75.5269 84.3179 76.1306C84.5191 76.7342 85.324 76.9019 85.9948 76.9187C88.812 77.0025 91.5455 76.1473 94.2118 75.2083C97.8758 74.4771 100.972 73.4825 104.069 72.4875C107.222 71.4743 110.377 70.4608 114.134 69.7247C115.576 69.4396 117.085 69.1378 118.343 68.3832C119.567 67.6453 120.422 66.572 121.177 65.4988C126.191 58.3551 132.865 45.3422 130.668 38.1147Z" fill="#F9E9DE"/>
<path d="M130.668 38.1147C129.31 33.6038 124.179 32.9665 123.29 38.7854C122.485 44.051 118.611 55.1187 116.398 60.2836C115.341 62.7655 113.279 64.6772 110.394 65.7504C108.225 66.5558 106.08 67.4164 103.936 68.2768C100.41 69.6915 96.8848 71.1058 93.256 72.2737C93.2728 72.3072 93.2728 72.3239 93.2728 72.3575C92.3002 72.7432 91.2436 72.9444 90.1871 72.9444C89.8479 72.9444 89.5025 72.925 89.1571 72.9056C88.1023 72.8464 87.0467 72.7872 86.1624 73.2798C86.2295 73.4307 86.2966 73.5816 86.3805 73.7493C86.4177 73.7559 86.4546 73.7624 86.4913 73.769C86.7358 73.8125 86.971 73.8543 87.2189 73.8834C86.5481 74.0344 85.8943 74.2859 85.2906 74.6213C84.7037 74.9567 84.1334 75.5269 84.3179 76.1306C84.5191 76.7342 85.324 76.9019 85.9948 76.9187C88.812 77.0025 91.5455 76.1473 94.2118 75.2083C97.8758 74.4771 100.972 73.4825 104.069 72.4875C107.222 71.4743 110.377 70.4608 114.134 69.7247C115.576 69.4396 117.085 69.1378 118.343 68.3832C119.567 67.6453 120.422 66.572 121.177 65.4988C126.191 58.3551 132.865 45.3422 130.668 38.1147Z" stroke="black"/>
<path d="M141.957 28.7769C142.997 27.6869 143.802 26.1442 144.238 24.2325C145.042 20.6942 145.462 16.9714 144.607 13.5002C143.617 9.50915 140.112 5.18265 135.685 5.55157C130.504 5.9708 129.716 12.7456 129.33 17.2733C129.011 20.8619 129.648 24.6517 131.761 27.4186C134.948 31.5439 139.24 31.6612 141.957 28.7769Z" fill="#F9E9DE"/>
<path d="M141.957 28.7769C142.997 27.6869 143.802 26.1442 144.238 24.2325C145.042 20.6942 145.462 16.9714 144.607 13.5002C143.617 9.50915 140.112 5.18265 135.685 5.55157C130.504 5.9708 129.716 12.7456 129.33 17.2733C129.011 20.8619 129.648 24.6517 131.761 27.4186C134.948 31.5439 139.24 31.6612 141.957 28.7769Z" stroke="black"/>
<path d="M121.181 177.553C122.002 177.57 122.841 177.621 123.663 177.755C123.887 177.786 124.112 177.823 124.336 177.859C125.084 177.98 125.832 178.101 126.58 178.023C126.839 177.994 127.092 177.946 127.346 177.898C127.52 177.865 127.695 177.833 127.872 177.805C128.457 177.717 129.044 177.719 129.63 177.721C129.715 177.721 129.799 177.721 129.884 177.721C130.194 177.73 130.504 177.734 130.814 177.738C131.125 177.743 131.435 177.747 131.745 177.755C131.913 177.755 132.114 177.771 132.248 177.872C132.399 177.989 132.45 178.174 132.483 178.358C132.634 179.046 132.718 179.75 132.718 180.454C132.718 180.874 132.684 181.343 132.399 181.645C132.198 181.863 131.896 181.981 131.611 182.064C131.063 182.198 130.498 182.232 129.932 182.265L129.917 182.266C126.983 182.433 124.031 182.584 121.097 182.4C120.901 182.387 120.674 182.383 120.431 182.377C119.402 182.355 118.067 182.327 117.458 181.662C116.821 180.974 117.139 179.868 117.525 179.147C118.263 177.771 119.772 177.537 121.181 177.553Z" fill="#537082"/>
<path d="M121.181 177.553C122.002 177.57 122.841 177.621 123.663 177.755C123.887 177.786 124.112 177.823 124.336 177.859C125.084 177.98 125.832 178.101 126.58 178.023C126.839 177.994 127.092 177.946 127.346 177.898C127.52 177.865 127.695 177.833 127.872 177.805C128.457 177.717 129.044 177.719 129.63 177.721C129.715 177.721 129.799 177.721 129.884 177.721C130.194 177.73 130.504 177.734 130.814 177.738C131.125 177.743 131.435 177.747 131.745 177.755C131.913 177.755 132.114 177.771 132.248 177.872C132.399 177.989 132.45 178.174 132.483 178.358C132.634 179.046 132.718 179.75 132.718 180.454C132.718 180.874 132.684 181.343 132.399 181.645C132.198 181.863 131.896 181.981 131.611 182.064C131.063 182.198 130.498 182.232 129.932 182.265L129.917 182.266C126.983 182.433 124.031 182.584 121.097 182.4C120.901 182.387 120.674 182.383 120.431 182.377C119.402 182.355 118.067 182.327 117.458 181.662C116.821 180.974 117.139 179.868 117.525 179.147C118.263 177.771 119.772 177.537 121.181 177.553Z" stroke="black"/>
<path d="M122.55 180.1C122.752 180.167 122.986 180.201 123.204 180.184C123.237 180.184 123.269 180.168 123.302 180.152L123.305 180.15C123.338 180.117 123.338 180.083 123.338 180.033V180.033C123.389 179.295 123.406 178.54 123.372 177.803C123.372 177.769 123.372 177.736 123.355 177.702C123.338 177.669 123.291 177.653 123.243 177.637C123.241 177.636 123.239 177.636 123.238 177.635C122.599 177.475 122.599 177.636 122.601 178.187C122.601 178.214 122.601 178.243 122.601 178.272C122.601 178.876 122.584 179.496 122.55 180.1Z" fill="#C1C1C1"/>
<path d="M122.55 180.1C122.752 180.167 122.986 180.201 123.204 180.184C123.237 180.184 123.269 180.168 123.302 180.152L123.305 180.15C123.338 180.117 123.338 180.083 123.338 180.033V180.033C123.389 179.295 123.406 178.54 123.372 177.803C123.372 177.769 123.372 177.736 123.355 177.702C123.338 177.669 123.291 177.653 123.243 177.637C123.241 177.636 123.239 177.636 123.238 177.635C122.599 177.475 122.599 177.636 122.601 178.187C122.601 178.214 122.601 178.243 122.601 178.272C122.601 178.876 122.584 179.496 122.55 180.1Z" stroke="black"/>
<path d="M124.852 179.748C124.852 179.816 124.852 179.883 124.902 179.933C124.953 179.966 125.02 179.966 125.07 179.95C125.165 179.933 125.26 179.92 125.355 179.907C125.444 179.895 125.534 179.882 125.623 179.866C125.657 179.866 125.69 179.849 125.707 179.832C125.741 179.799 125.741 179.765 125.741 179.715V179.715C125.757 179.094 125.757 178.474 125.757 177.854V177.854V177.854C125.757 177.82 125.757 177.786 125.741 177.77C125.729 177.747 125.709 177.739 125.686 177.731C125.677 177.728 125.667 177.724 125.657 177.719C125.508 177.676 125.363 177.696 125.223 177.716C125.095 177.734 124.971 177.751 124.852 177.719C124.829 178.167 124.837 178.623 124.844 179.076C124.848 179.301 124.852 179.526 124.852 179.748Z" fill="#C1C1C1"/>
<path d="M124.852 179.748C124.852 179.816 124.852 179.883 124.902 179.933C124.953 179.966 125.02 179.966 125.07 179.95C125.165 179.933 125.26 179.92 125.355 179.907C125.444 179.895 125.534 179.882 125.623 179.866C125.657 179.866 125.69 179.849 125.707 179.832C125.741 179.799 125.741 179.765 125.741 179.715V179.715C125.757 179.094 125.757 178.474 125.757 177.854V177.854V177.854C125.757 177.82 125.757 177.786 125.741 177.77C125.729 177.747 125.709 177.739 125.686 177.731C125.677 177.728 125.667 177.724 125.657 177.719C125.508 177.676 125.363 177.696 125.223 177.716C125.095 177.734 124.971 177.751 124.852 177.719C124.829 178.167 124.837 178.623 124.844 179.076C124.848 179.301 124.852 179.526 124.852 179.748Z" stroke="black"/>
<path d="M127.078 179.625C127.078 179.659 127.095 179.692 127.111 179.709C127.128 179.726 127.162 179.726 127.195 179.726H127.195H127.614H127.614C127.682 179.726 127.749 179.726 127.799 179.676C127.821 179.653 127.829 179.622 127.836 179.589C127.84 179.573 127.843 179.557 127.849 179.541C127.883 179.139 127.933 177.345 127.128 177.68C126.655 177.867 126.893 178.85 127.024 179.393C127.046 179.485 127.066 179.565 127.078 179.625Z" fill="#C1C1C1"/>
<path d="M127.078 179.625C127.078 179.659 127.095 179.692 127.111 179.709C127.128 179.726 127.162 179.726 127.195 179.726H127.195H127.614H127.614C127.682 179.726 127.749 179.726 127.799 179.676C127.821 179.653 127.829 179.622 127.836 179.589C127.84 179.573 127.843 179.557 127.849 179.541C127.883 179.139 127.933 177.345 127.128 177.68C126.655 177.867 126.893 178.85 127.024 179.393C127.046 179.485 127.066 179.565 127.078 179.625Z" stroke="black"/>
<path d="M150.711 178.541C150.945 178.139 151.214 177.736 151.582 177.451C151.968 177.149 152.438 176.965 152.907 176.814C153.511 176.629 154.148 176.512 154.785 176.596C155.758 176.73 156.63 177.384 157.184 178.206C157.737 179.027 158.022 180 158.156 180.989C158.19 181.207 158.206 181.442 158.139 181.66C158.055 181.878 157.888 182.029 157.686 182.163C157.083 182.566 156.345 182.717 155.624 182.8C154.551 182.935 153.461 182.985 152.371 183.035C151.868 183.052 151.331 183.069 150.845 182.901C150.073 182.633 149.671 182.163 149.788 181.375C149.939 180.369 150.208 179.43 150.711 178.541Z" fill="#537082"/>
<path d="M150.711 178.541C150.945 178.139 151.214 177.736 151.582 177.451C151.968 177.149 152.438 176.965 152.907 176.814C153.511 176.629 154.148 176.512 154.785 176.596C155.758 176.73 156.63 177.384 157.184 178.206C157.737 179.027 158.022 180 158.156 180.989C158.19 181.207 158.206 181.442 158.139 181.66C158.055 181.878 157.888 182.029 157.686 182.163C157.083 182.566 156.345 182.717 155.624 182.8C154.551 182.935 153.461 182.985 152.371 183.035C151.868 183.052 151.331 183.069 150.845 182.901C150.073 182.633 149.671 182.163 149.788 181.375C149.939 180.369 150.208 179.43 150.711 178.541Z" stroke="black"/>
<path d="M126.124 43.7455C124.931 53.2964 122.776 62.6796 120.621 72.068C119.805 75.6195 118.99 79.1717 118.226 82.734C117.957 83.9917 117.689 85.2996 118.041 86.5406C118.527 88.2678 120.12 89.4919 121.814 90.1124C123.642 90.7999 125.621 90.9341 127.566 91.0515C134.794 91.4539 142.038 91.4539 149.249 91.0515C150.238 91.0012 151.261 90.9342 152.15 90.4814C153.676 89.7268 154.531 87.9996 154.715 86.3059C154.89 84.8371 154.648 83.3682 154.406 81.8994C154.368 81.6745 154.331 81.4496 154.296 81.2247C153.516 76.2943 153.405 71.2931 153.294 66.2916C153.176 60.9673 153.058 55.6428 152.133 50.4029C151.969 49.4554 151.777 48.5115 151.586 47.5676C151.192 45.6216 150.798 43.6758 150.64 41.6996C150.598 41.1689 150.574 40.6365 150.55 40.1051C150.498 38.9406 150.446 37.7805 150.204 36.6521C149.852 34.992 149.014 33.3486 147.555 32.4766C145.609 31.319 143.301 31.8526 141.004 32.3838C140.173 32.5759 139.344 32.7677 138.533 32.8791C136.504 33.1474 134.441 32.8791 132.463 32.4095C132.106 32.3272 131.749 32.2062 131.397 32.0871C130.246 31.6971 129.152 31.3266 128.304 32.3927C126.79 34.3127 126.541 38.103 126.34 41.1466C126.276 42.1171 126.217 43.0117 126.124 43.7455Z" fill="#EFEFEF"/>
<path d="M126.124 43.7455C124.931 53.2964 122.776 62.6796 120.621 72.068C119.805 75.6195 118.99 79.1717 118.226 82.734C117.957 83.9917 117.689 85.2996 118.041 86.5406C118.527 88.2678 120.12 89.4919 121.814 90.1124C123.642 90.7999 125.621 90.9341 127.566 91.0515C134.794 91.4539 142.038 91.4539 149.249 91.0515C150.238 91.0012 151.261 90.9342 152.15 90.4814C153.676 89.7268 154.531 87.9996 154.715 86.3059C154.89 84.8371 154.648 83.3682 154.406 81.8994C154.368 81.6745 154.331 81.4496 154.296 81.2247C153.516 76.2943 153.405 71.2931 153.294 66.2916C153.176 60.9673 153.058 55.6428 152.133 50.4029C151.969 49.4554 151.777 48.5115 151.586 47.5676C151.192 45.6216 150.798 43.6758 150.64 41.6996C150.598 41.1689 150.574 40.6365 150.55 40.1051C150.498 38.9406 150.446 37.7805 150.204 36.6521C149.852 34.992 149.014 33.3486 147.555 32.4766C145.609 31.319 143.301 31.8526 141.004 32.3838C140.173 32.5759 139.344 32.7677 138.533 32.8791C136.504 33.1474 134.441 32.8791 132.463 32.4095C132.106 32.3272 131.749 32.2062 131.397 32.0871C130.246 31.6971 129.152 31.3266 128.304 32.3927C126.79 34.3127 126.541 38.103 126.34 41.1466C126.276 42.1171 126.217 43.0117 126.124 43.7455Z" stroke="black"/>
<path d="M125.952 60.8185C124.04 60.8185 124.04 63.7867 125.952 63.7867C127.864 63.77 127.864 60.8185 125.952 60.8185Z" fill="#333333"/>
<path d="M125.952 60.8185C124.04 60.8185 124.04 63.7867 125.952 63.7867C127.864 63.77 127.864 60.8185 125.952 60.8185Z" stroke="black"/>
<path d="M129.976 53.2248C128.064 53.2248 128.064 56.1929 129.976 56.1929C131.888 56.1762 131.888 53.2248 129.976 53.2248Z" fill="#333333"/>
<path d="M129.976 53.2248C128.064 53.2248 128.064 56.1929 129.976 56.1929C131.888 56.1762 131.888 53.2248 129.976 53.2248Z" stroke="black"/>
<path d="M133.446 64.7639C131.534 64.7639 131.534 67.732 133.446 67.732C135.358 67.7153 135.358 64.7639 133.446 64.7639Z" fill="#333333"/>
<path d="M133.446 64.7639C131.534 64.7639 131.534 67.732 133.446 67.732C135.358 67.7153 135.358 64.7639 133.446 64.7639Z" stroke="black"/>
<path d="M135.962 47.217C134.05 47.217 134.05 50.1852 135.962 50.1852C137.873 50.1684 137.873 47.217 135.962 47.217Z" fill="#333333"/>
<path d="M135.962 47.217C134.05 47.217 134.05 50.1852 135.962 50.1852C137.873 50.1684 137.873 47.217 135.962 47.217Z" stroke="black"/>
<path d="M123.622 72.6935C121.711 72.6935 121.711 75.6616 123.622 75.6616C125.517 75.6449 125.534 72.6935 123.622 72.6935Z" fill="#333333"/>
<path d="M123.622 72.6935C121.711 72.6935 121.711 75.6616 123.622 75.6616C125.517 75.6449 125.534 72.6935 123.622 72.6935Z" stroke="black"/>
<path d="M139.756 57.5295C137.844 57.5295 137.844 60.4977 139.756 60.4977C141.668 60.4977 141.668 57.5295 139.756 57.5295Z" fill="#333333"/>
<path d="M139.756 57.5295C137.844 57.5295 137.844 60.4977 139.756 60.4977C141.668 60.4977 141.668 57.5295 139.756 57.5295Z" stroke="black"/>
<path d="M122.181 83.8107C120.269 83.8107 120.269 86.7789 122.181 86.7789C124.093 86.7789 124.093 83.8107 122.181 83.8107Z" fill="#333333"/>
<path d="M122.181 83.8107C120.269 83.8107 120.269 86.7789 122.181 86.7789C124.093 86.7789 124.093 83.8107 122.181 83.8107Z" stroke="black"/>
<path d="M130.515 76.6154C128.604 76.6154 128.604 79.5836 130.515 79.5836C132.41 79.5668 132.41 76.6154 130.515 76.6154Z" fill="#333333"/>
<path d="M130.515 76.6154C128.604 76.6154 128.604 79.5836 130.515 79.5836C132.41 79.5668 132.41 76.6154 130.515 76.6154Z" stroke="black"/>
<path d="M137.174 84.3264C135.262 84.3264 135.262 87.2944 137.174 87.2944C139.069 87.2777 139.086 84.3264 137.174 84.3264Z" fill="#333333"/>
<path d="M137.174 84.3264C135.262 84.3264 135.262 87.2944 137.174 87.2944C139.069 87.2777 139.086 84.3264 137.174 84.3264Z" stroke="black"/>
<path d="M139.756 72.6935C137.844 72.6935 137.844 75.6616 139.756 75.6616C141.668 75.6449 141.668 72.6935 139.756 72.6935Z" fill="#333333"/>
<path d="M139.756 72.6935C137.844 72.6935 137.844 75.6616 139.756 75.6616C141.668 75.6449 141.668 72.6935 139.756 72.6935Z" stroke="black"/>
<path d="M151.408 84.3264C149.496 84.3264 149.496 87.2944 151.408 87.2944C153.303 87.2777 153.303 84.3264 151.408 84.3264Z" fill="#333333"/>
<path d="M151.408 84.3264C149.496 84.3264 149.496 87.2944 151.408 87.2944C153.303 87.2777 153.303 84.3264 151.408 84.3264Z" stroke="black"/>
<path d="M151.408 71.0288C153.32 71.0288 153.32 68.0607 151.408 68.0607C149.496 68.0775 149.496 71.0288 151.408 71.0288Z" fill="#333333"/>
<path d="M151.408 71.0288C153.32 71.0288 153.32 68.0607 151.408 68.0607C149.496 68.0775 149.496 71.0288 151.408 71.0288Z" stroke="black"/>
<path d="M130.515 41.5998C128.604 41.5998 128.604 44.568 130.515 44.568C132.41 44.5512 132.41 41.5998 130.515 41.5998Z" fill="#333333"/>
<path d="M130.515 41.5998C128.604 41.5998 128.604 44.568 130.515 44.568C132.41 44.5512 132.41 41.5998 130.515 41.5998Z" stroke="black"/>
<path d="M137.174 38.1305C139.086 38.1305 139.086 35.1623 137.174 35.1623C135.262 35.1623 135.262 38.1305 137.174 38.1305Z" fill="#333333"/>
<path d="M137.174 38.1305C139.086 38.1305 139.086 35.1623 137.174 35.1623C135.262 35.1623 135.262 38.1305 137.174 38.1305Z" stroke="black"/>
<path d="M146.129 33.0998C144.217 33.0998 144.217 36.0679 146.129 36.0679C148.04 36.0679 148.04 33.0998 146.129 33.0998Z" fill="#333333"/>
<path d="M146.129 33.0998C144.217 33.0998 144.217 36.0679 146.129 36.0679C148.04 36.0679 148.04 33.0998 146.129 33.0998Z" stroke="black"/>
<path d="M149.967 50.0373C148.055 50.0373 148.055 53.0055 149.967 53.0055C151.878 53.0055 151.878 50.0373 149.967 50.0373Z" fill="#333333"/>
<path d="M149.967 50.0373C148.055 50.0373 148.055 53.0055 149.967 53.0055C151.878 53.0055 151.878 50.0373 149.967 50.0373Z" stroke="black"/>
<path d="M134.66 90.1353C132.795 86.4051 131.831 82.3481 130.869 78.2989C130.741 77.761 130.614 77.2233 130.484 76.6864C129.31 71.7898 128.237 66.8765 127.566 61.8792C126.946 57.2006 126.644 52.5052 126.627 47.793C126.61 45.5124 126.678 43.2486 126.812 40.9847C126.822 40.8025 126.829 40.5543 126.838 40.2572C126.912 37.6837 127.091 31.4391 130.384 32.5666C130.652 32.6672 130.853 32.2312 130.585 32.0971C127.55 30.5543 126.543 34.1597 126.258 36.4571C125.487 42.8462 125.37 49.3358 125.822 55.7417C126.242 61.7451 127.197 67.6813 128.522 73.5506C128.669 74.1997 128.813 74.8522 128.959 75.5067C130.108 80.6855 131.286 85.9898 133.654 90.739C133.989 91.4098 134.995 90.8229 134.66 90.1353Z" fill="#BC6269"/>
<path d="M134.66 90.1353C132.795 86.4051 131.831 82.3481 130.869 78.2989C130.741 77.761 130.614 77.2233 130.484 76.6864C129.31 71.7898 128.237 66.8765 127.566 61.8792C126.946 57.2006 126.644 52.5052 126.627 47.793C126.61 45.5124 126.678 43.2486 126.812 40.9847C126.822 40.8025 126.829 40.5543 126.838 40.2572C126.912 37.6837 127.091 31.4391 130.384 32.5666C130.652 32.6672 130.853 32.2312 130.585 32.0971C127.55 30.5543 126.543 34.1597 126.258 36.4571C125.487 42.8462 125.37 49.3358 125.822 55.7417C126.242 61.7451 127.197 67.6813 128.522 73.5506C128.669 74.1997 128.813 74.8522 128.959 75.5067C130.108 80.6855 131.286 85.9898 133.654 90.739C133.989 91.4098 134.995 90.8229 134.66 90.1353Z" stroke="black"/>
<path d="M153.143 58.2039C153.042 57.8852 152.572 58.0194 152.639 58.338C152.685 58.5824 152.732 58.8268 152.779 59.0712C154.781 69.5773 156.79 80.1103 152.824 90.4511C152.556 91.1721 153.713 91.4908 153.981 90.7697C158.006 80.2554 156.413 68.7014 153.143 58.2039Z" fill="#BC6269"/>
<path d="M153.143 58.2039C153.042 57.8852 152.572 58.0194 152.639 58.338C152.685 58.5824 152.732 58.8268 152.779 59.0712C154.781 69.5773 156.79 80.1103 152.824 90.4511C152.556 91.1721 153.713 91.4908 153.981 90.7697C158.006 80.2554 156.413 68.7014 153.143 58.2039Z" stroke="black"/>
<path d="M148.767 87.0678C149.974 86.9504 151.299 86.8498 152.305 87.5206C153.462 88.2752 153.865 89.7845 154.116 91.1428C154.921 95.486 155.29 99.9131 155.206 104.323C155.19 105.027 155.156 105.765 154.854 106.402C154.385 107.358 153.379 107.912 152.389 108.314C148.214 110.008 143.569 109.907 139.058 109.773L139.044 109.773C138.595 109.756 138.114 109.738 137.733 109.505C137.112 109.136 136.894 108.348 136.727 107.627C135.62 102.579 134.798 97.4647 134.278 92.3166C134.195 91.4781 134.111 90.6061 134.346 89.8012C135.004 87.4032 141.771 87.2621 146.024 87.1734C147.183 87.1492 148.156 87.1289 148.767 87.0678Z" fill="#AA4A4D"/>
<path d="M148.767 87.0678C149.974 86.9504 151.299 86.8498 152.305 87.5206C153.462 88.2752 153.865 89.7845 154.116 91.1428C154.921 95.486 155.29 99.9131 155.206 104.323C155.19 105.027 155.156 105.765 154.854 106.402C154.385 107.358 153.379 107.912 152.389 108.314C148.214 110.008 143.569 109.907 139.058 109.773L139.044 109.773C138.595 109.756 138.114 109.738 137.733 109.505C137.112 109.136 136.894 108.348 136.727 107.627C135.62 102.579 134.798 97.4647 134.278 92.3166C134.195 91.4781 134.111 90.6061 134.346 89.8012C135.004 87.4032 141.771 87.2621 146.024 87.1734C147.183 87.1492 148.156 87.1289 148.767 87.0678Z" stroke="black"/>
<path d="M151.465 91.1126C150.694 98.3234 139.526 100.269 136.859 93.2926C136.775 93.0746 136.44 93.1584 136.507 93.3932C139.123 101.409 151.381 98.9606 152.287 91.1294C152.354 90.5928 151.515 90.5928 151.465 91.1126Z" fill="#BC6269"/>
<path d="M151.465 91.1126C150.694 98.3234 139.526 100.269 136.859 93.2926C136.775 93.0746 136.44 93.1584 136.507 93.3932C139.123 101.409 151.381 98.9606 152.287 91.1294C152.354 90.5928 151.515 90.5928 151.465 91.1126Z" stroke="black"/>
<path d="M144.943 96.2909C145.379 95.9891 145.446 95.2849 145.061 94.916C144.625 94.4967 143.87 94.6812 143.635 95.2178C143.602 95.2849 143.585 95.352 143.585 95.4358C143.551 95.57 143.568 95.7041 143.618 95.855C143.803 96.3917 144.474 96.6096 144.943 96.2909Z" fill="#BC6269"/>
<path d="M144.943 96.2909C145.379 95.9891 145.446 95.2849 145.061 94.916C144.625 94.4967 143.87 94.6812 143.635 95.2178C143.602 95.2849 143.585 95.352 143.585 95.4358C143.551 95.57 143.568 95.7041 143.618 95.855C143.803 96.3917 144.474 96.6096 144.943 96.2909Z" stroke="black"/>
<path d="M150.523 58.9614C150.381 55.4752 150.002 52.0038 149.622 48.5333C149.599 48.3145 149.575 48.0957 149.551 47.8769C149.541 47.7938 149.532 47.7106 149.522 47.6273C149.382 46.4009 149.24 45.1654 148.863 44.0033C148.734 43.5991 148.583 43.2031 148.432 42.8081C148.15 42.0724 147.871 41.3403 147.74 40.5655C147.705 40.338 147.682 40.1059 147.66 39.8739C147.596 39.2171 147.533 38.562 147.186 38.0166C146.566 37.0608 145.308 36.7757 144.168 36.6918C142.86 36.5912 141.418 36.6415 140.445 37.5135C139.037 38.7712 139.271 41.0183 139.724 42.8629C139.877 43.4746 140.04 44.0863 140.203 44.6988C140.506 45.8324 140.809 46.9685 141.049 48.1117C141.406 49.812 141.616 51.5381 141.826 53.2639C142.031 54.9423 142.236 56.6203 142.575 58.2738C142.978 60.2423 143.062 62.1856 143.148 64.1631C143.184 64.9821 143.22 65.8069 143.279 66.6417C143.573 70.8445 142.784 74.9477 141.99 79.0824C141.922 79.435 141.854 79.7879 141.787 80.141C141.765 80.254 141.744 80.3671 141.723 80.4803C141.239 83.0376 140.747 85.639 140.764 88.2404C140.475 89.1743 140.211 90.1139 139.945 91.056C139.763 91.7042 139.58 92.3536 139.389 93.0029C139.338 93.1874 139.305 93.439 139.472 93.5396C139.535 93.5757 139.603 93.5778 139.671 93.5799C139.729 93.5816 139.787 93.5834 139.841 93.6066C139.975 93.6569 140.043 93.8247 140.059 93.9588C140.169 94.5383 139.985 95.1178 139.804 95.688C139.764 95.8108 139.726 95.9332 139.69 96.055C139.489 96.7425 139.389 97.5642 139.841 98.1175C140.11 98.4529 140.529 98.6206 140.948 98.7044C141.669 98.8721 142.474 98.8218 143.078 98.4026C144.034 97.7486 144.252 96.4574 144.352 95.3171C144.57 93.221 144.721 91.108 144.855 89.0119C145.652 85.3669 146.454 81.7218 147.255 78.0768C148.106 74.2092 148.956 70.3416 149.802 66.474C150.054 65.3505 150.305 64.2102 150.423 63.0531C150.607 61.6948 150.59 60.3197 150.523 58.9614Z" fill="#F9E9DE"/>
<path d="M150.523 58.9614C150.381 55.4752 150.002 52.0038 149.622 48.5333C149.599 48.3145 149.575 48.0957 149.551 47.8769C149.541 47.7938 149.532 47.7106 149.522 47.6273C149.382 46.4009 149.24 45.1654 148.863 44.0033C148.734 43.5991 148.583 43.2031 148.432 42.8081C148.15 42.0724 147.871 41.3403 147.74 40.5655C147.705 40.338 147.682 40.1059 147.66 39.8739C147.596 39.2171 147.533 38.562 147.186 38.0166C146.566 37.0608 145.308 36.7757 144.168 36.6918C142.86 36.5912 141.418 36.6415 140.445 37.5135C139.037 38.7712 139.271 41.0183 139.724 42.8629C139.877 43.4746 140.04 44.0863 140.203 44.6988C140.506 45.8324 140.809 46.9685 141.049 48.1117C141.406 49.812 141.616 51.5381 141.826 53.2639C142.031 54.9423 142.236 56.6203 142.575 58.2738C142.978 60.2423 143.062 62.1856 143.148 64.1631C143.184 64.9821 143.22 65.8069 143.279 66.6417C143.573 70.8445 142.784 74.9477 141.99 79.0824C141.922 79.435 141.854 79.7879 141.787 80.141C141.765 80.254 141.744 80.3671 141.723 80.4803C141.239 83.0376 140.747 85.639 140.764 88.2404C140.475 89.1743 140.211 90.1139 139.945 91.056C139.763 91.7042 139.58 92.3536 139.389 93.0029C139.338 93.1874 139.305 93.439 139.472 93.5396C139.535 93.5757 139.603 93.5778 139.671 93.5799C139.729 93.5816 139.787 93.5834 139.841 93.6066C139.975 93.6569 140.043 93.8247 140.059 93.9588C140.169 94.5383 139.985 95.1178 139.804 95.688C139.764 95.8108 139.726 95.9332 139.69 96.055C139.489 96.7425 139.389 97.5642 139.841 98.1175C140.11 98.4529 140.529 98.6206 140.948 98.7044C141.669 98.8721 142.474 98.8218 143.078 98.4026C144.034 97.7486 144.252 96.4574 144.352 95.3171C144.57 93.221 144.721 91.108 144.855 89.0119C145.652 85.3669 146.454 81.7218 147.255 78.0768C148.106 74.2092 148.956 70.3416 149.802 66.474C150.054 65.3505 150.305 64.2102 150.423 63.0531C150.607 61.6948 150.59 60.3197 150.523 58.9614Z" stroke="black"/>
<path d="M163.018 50.5063C162.772 50.3326 162.494 50.2119 162.218 50.0918C161.854 49.9337 161.493 49.7765 161.207 49.5002C160.503 48.8294 160.503 47.7059 160.788 46.7836C160.889 46.4343 161.025 46.0923 161.16 45.7501C161.382 45.1888 161.604 44.6273 161.677 44.0334C161.963 41.902 160.443 40.1122 159.001 38.4143C158.753 38.1218 158.507 37.832 158.273 37.5437C154.03 32.3117 153.158 25.3693 153.024 18.846C153.013 18.3789 153.021 17.9046 153.03 17.4408C153.047 16.4893 153.064 15.582 152.907 14.8717C152.915 14.8113 152.928 14.7509 152.941 14.6905C152.953 14.6335 152.966 14.5766 152.974 14.5196C153.745 10.7297 152.554 8.29823 150.123 5.7493C146.165 1.57376 139.81 -0.103155 134.393 1.97623C134.343 1.99492 134.291 2.01592 134.237 2.03752C134.147 2.07404 134.052 2.11227 133.957 2.14388C132.096 3.75372 130.486 5.71576 129.798 8.26469C129.362 9.841 129.228 11.7024 129.547 13.3457C129.614 13.5637 129.681 13.7817 129.765 13.9829C129.866 12.2389 130.184 10.3608 131.073 9.87452C131.524 9.61505 133.034 9.95036 134.464 10.2682C135.529 10.5049 136.551 10.732 137.06 10.6962C137.515 10.6661 138.048 10.5729 138.615 10.4739C140.578 10.1311 142.938 9.71894 143.784 11.6185C144.316 12.8113 143.732 14.1901 143.239 15.3526C143.219 15.3995 143.199 15.446 143.18 15.4922C143.163 15.5257 143.151 15.555 143.138 15.5843C143.126 15.6137 143.113 15.643 143.097 15.6766C142.795 16.3977 142.51 17.1355 142.459 17.3871C142.074 19.5503 141.789 21.5123 141.789 23.1222C141.017 25.973 140.883 29.0249 140.984 32.0099C141 32.4459 141.017 32.8986 141.202 33.2843C141.709 34.3833 142.998 34.4995 144.295 34.6163C144.798 34.6616 145.303 34.7071 145.763 34.8103C147.44 35.196 148.731 36.5879 149.536 38.1139C151.069 41.0209 151.127 44.3496 151.185 47.6896C151.211 49.2435 151.238 50.7999 151.414 52.3174C151.565 53.5919 151.833 54.8831 152.47 56.0067C153.762 58.3041 156.646 59.5953 159.212 59.0251C161.794 58.455 163.857 56.0737 164.058 53.4577C164.192 52.3677 163.924 51.1435 163.018 50.5063Z" fill="#8C6239"/>
<path d="M163.018 50.5063C162.772 50.3326 162.494 50.2119 162.218 50.0918C161.854 49.9337 161.493 49.7765 161.207 49.5002C160.503 48.8294 160.503 47.7059 160.788 46.7836C160.889 46.4343 161.025 46.0923 161.16 45.7501C161.382 45.1888 161.604 44.6273 161.677 44.0334C161.963 41.902 160.443 40.1122 159.001 38.4143C158.753 38.1218 158.507 37.832 158.273 37.5437C154.03 32.3117 153.158 25.3693 153.024 18.846C153.013 18.3789 153.021 17.9046 153.03 17.4408C153.047 16.4893 153.064 15.582 152.907 14.8717C152.915 14.8113 152.928 14.7509 152.941 14.6905C152.953 14.6335 152.966 14.5766 152.974 14.5196C153.745 10.7297 152.554 8.29823 150.123 5.7493C146.165 1.57376 139.81 -0.103155 134.393 1.97623C134.343 1.99492 134.291 2.01592 134.237 2.03752C134.147 2.07404 134.052 2.11227 133.957 2.14388C132.096 3.75372 130.486 5.71576 129.798 8.26469C129.362 9.841 129.228 11.7024 129.547 13.3457C129.614 13.5637 129.681 13.7817 129.765 13.9829C129.866 12.2389 130.184 10.3608 131.073 9.87452C131.524 9.61505 133.034 9.95036 134.464 10.2682C135.529 10.5049 136.551 10.732 137.06 10.6962C137.515 10.6661 138.048 10.5729 138.615 10.4739C140.578 10.1311 142.938 9.71894 143.784 11.6185C144.316 12.8113 143.732 14.1901 143.239 15.3526C143.219 15.3995 143.199 15.446 143.18 15.4922C143.163 15.5257 143.151 15.555 143.138 15.5843C143.126 15.6137 143.113 15.643 143.097 15.6766C142.795 16.3977 142.51 17.1355 142.459 17.3871C142.074 19.5503 141.789 21.5123 141.789 23.1222C141.017 25.973 140.883 29.0249 140.984 32.0099C141 32.4459 141.017 32.8986 141.202 33.2843C141.709 34.3833 142.998 34.4995 144.295 34.6163C144.798 34.6616 145.303 34.7071 145.763 34.8103C147.44 35.196 148.731 36.5879 149.536 38.1139C151.069 41.0209 151.127 44.3496 151.185 47.6896C151.211 49.2435 151.238 50.7999 151.414 52.3174C151.565 53.5919 151.833 54.8831 152.47 56.0067C153.762 58.3041 156.646 59.5953 159.212 59.0251C161.794 58.455 163.857 56.0737 164.058 53.4577C164.192 52.3677 163.924 51.1435 163.018 50.5063Z" stroke="black"/>
<path d="M30.0734 189.469C34.3266 189.62 38.563 189.537 42.8161 189.453L42.8348 189.452C48.7627 189.343 54.6948 189.23 60.6269 189.117C66.559 189.004 72.4911 188.89 78.419 188.781C80.2637 188.748 82.6451 188.346 82.7792 186.92C82.8966 185.646 81.0185 184.841 79.4421 184.455C73.7574 183.097 67.7875 182.828 61.8847 182.61C53.1982 182.275 44.5117 182.007 35.842 181.789C30.4256 181.655 24.8414 181.554 19.7939 182.979C17.0437 183.751 12.9689 187.037 17.3456 188.614C18.1483 188.904 19.5067 188.912 20.7115 188.92C21.3191 188.924 21.8875 188.927 22.326 188.966C24.8917 189.184 27.4742 189.385 30.0734 189.469Z" fill="url(#paint2_linear_201_785)"/>
<path d="M30.0734 189.469C34.3266 189.62 38.563 189.537 42.8161 189.453L42.8348 189.452C48.7627 189.343 54.6948 189.23 60.6269 189.117C66.559 189.004 72.4911 188.89 78.419 188.781C80.2637 188.748 82.6451 188.346 82.7792 186.92C82.8966 185.646 81.0185 184.841 79.4421 184.455C73.7574 183.097 67.7875 182.828 61.8847 182.61C53.1982 182.275 44.5117 182.007 35.842 181.789C30.4256 181.655 24.8414 181.554 19.7939 182.979C17.0437 183.751 12.9689 187.037 17.3456 188.614C18.1483 188.904 19.5067 188.912 20.7115 188.92C21.3191 188.924 21.8875 188.927 22.326 188.966C24.8917 189.184 27.4742 189.385 30.0734 189.469Z" stroke="black"/>
<path d="M30.072 189.469C34.3251 189.62 38.5615 189.537 42.8146 189.453L42.8333 189.452C48.7612 189.343 54.6933 189.23 60.6254 189.117C66.5575 189.004 72.4896 188.89 78.4176 188.781C80.2622 188.748 82.6436 188.346 82.7777 186.92C82.8951 185.646 81.017 184.841 79.4407 184.455C73.7559 183.097 67.786 182.828 61.8832 182.61C53.1968 182.275 44.5103 182.007 35.8406 181.789C30.4241 181.655 24.8399 181.554 19.7924 182.979C17.0423 183.751 12.9674 187.037 17.3442 188.614C18.1469 188.904 19.5053 188.912 20.7101 188.92C21.3177 188.924 21.8861 188.927 22.3246 188.966C24.8903 189.184 27.4727 189.385 30.072 189.469Z" fill="url(#paint3_linear_201_785)"/>
<path d="M30.072 189.469C34.3251 189.62 38.5615 189.537 42.8146 189.453L42.8333 189.452C48.7612 189.343 54.6933 189.23 60.6254 189.117C66.5575 189.004 72.4896 188.89 78.4176 188.781C80.2622 188.748 82.6436 188.346 82.7777 186.92C82.8951 185.646 81.017 184.841 79.4407 184.455C73.7559 183.097 67.786 182.828 61.8832 182.61C53.1968 182.275 44.5103 182.007 35.8406 181.789C30.4241 181.655 24.8399 181.554 19.7924 182.979C17.0423 183.751 12.9674 187.037 17.3442 188.614C18.1469 188.904 19.5053 188.912 20.7101 188.92C21.3177 188.924 21.8861 188.927 22.3246 188.966C24.8903 189.184 27.4727 189.385 30.072 189.469Z" stroke="black"/>
<path d="M150.157 183.251C150.509 183.721 151.18 183.771 151.767 183.788C151.848 183.79 151.929 183.792 152.01 183.793C153.606 183.825 155.2 183.858 156.764 183.586C157.15 183.519 157.535 183.436 157.854 183.218C158.172 183 158.407 182.614 158.357 182.245C158.307 181.842 157.938 181.541 157.535 181.423C157.133 181.323 156.714 181.373 156.311 181.423C155.747 181.5 155.184 181.591 154.62 181.682C153.825 181.811 153.03 181.939 152.236 182.027C151.995 182.054 151.724 182.049 151.45 182.043C151.037 182.035 150.616 182.027 150.274 182.127C149.738 182.245 149.872 182.882 150.157 183.251Z" fill="white"/>
<path d="M150.157 183.251C150.509 183.721 151.18 183.771 151.767 183.788C151.848 183.79 151.929 183.792 152.01 183.793C153.606 183.825 155.2 183.858 156.764 183.586C157.15 183.519 157.535 183.436 157.854 183.218C158.172 183 158.407 182.614 158.357 182.245C158.307 181.842 157.938 181.541 157.535 181.423C157.133 181.323 156.714 181.373 156.311 181.423C155.747 181.5 155.184 181.591 154.62 181.682C153.825 181.811 153.03 181.939 152.236 182.027C151.995 182.054 151.724 182.049 151.45 182.043C151.037 182.035 150.616 182.027 150.274 182.127C149.738 182.245 149.872 182.882 150.157 183.251Z" stroke="black"/>
<path d="M117.577 182.478C117.845 182.713 118.231 182.78 118.583 182.814C120.265 183.001 121.962 182.985 123.659 182.969C123.79 182.968 123.92 182.966 124.05 182.965L127.99 182.914C129.181 182.898 130.372 182.881 131.529 182.646C131.797 182.596 132.065 182.529 132.283 182.361C132.501 182.21 132.686 181.959 132.686 181.69C132.686 181.556 132.635 181.422 132.535 181.321C132.35 181.154 132.065 181.187 131.814 181.221C127.454 181.908 123.01 181.958 118.633 181.405C118.58 181.4 118.519 181.391 118.453 181.382C118.124 181.334 117.669 181.269 117.459 181.506C117.208 181.774 117.325 182.277 117.577 182.478Z" fill="white"/>
<path d="M117.577 182.478C117.845 182.713 118.231 182.78 118.583 182.814C120.265 183.001 121.962 182.985 123.659 182.969C123.79 182.968 123.92 182.966 124.05 182.965L127.99 182.914C129.181 182.898 130.372 182.881 131.529 182.646C131.797 182.596 132.065 182.529 132.283 182.361C132.501 182.21 132.686 181.959 132.686 181.69C132.686 181.556 132.635 181.422 132.535 181.321C132.35 181.154 132.065 181.187 131.814 181.221C127.454 181.908 123.01 181.958 118.633 181.405C118.58 181.4 118.519 181.391 118.453 181.382C118.124 181.334 117.669 181.269 117.459 181.506C117.208 181.774 117.325 182.277 117.577 182.478Z" stroke="black"/>
<path d="M81.4139 72.8741C81.4076 72.8534 81.4012 72.8327 81.3949 72.8119C81.1483 72.0077 80.8836 71.1442 81.1287 70.3922C81.4138 69.5034 82.3027 69.1178 83.1244 68.883C84.0635 68.6147 85.0528 68.4302 86.0254 68.3464C86.0675 68.343 86.1154 68.3388 86.1678 68.3342C86.6375 68.2928 87.4744 68.219 87.8364 68.4302C88.3362 68.7242 88.4625 69.3402 88.5876 69.9507C88.6053 70.0368 88.6229 70.1228 88.6415 70.2077C88.936 71.4681 89.2304 72.6584 89.516 73.813C90.1576 76.4069 90.7546 78.8207 91.2071 81.4431C91.2909 81.963 91.3748 82.5667 91.0898 82.9524C90.9053 83.204 90.6201 83.3045 90.3518 83.3883C90.3031 83.404 90.2513 83.4208 90.1966 83.4386C88.5555 83.9709 84.3106 85.3477 83.6777 82.7512C83.3708 81.4917 83.12 80.2346 82.8695 78.979C82.463 76.9414 82.0572 74.9078 81.4139 72.8741Z" fill="#AA6A64"/>
<path d="M81.4139 72.8741C81.4076 72.8534 81.4012 72.8327 81.3949 72.8119C81.1483 72.0077 80.8836 71.1442 81.1287 70.3922C81.4138 69.5034 82.3027 69.1178 83.1244 68.883C84.0635 68.6147 85.0528 68.4302 86.0254 68.3464C86.0675 68.343 86.1154 68.3388 86.1678 68.3342C86.6375 68.2928 87.4744 68.219 87.8364 68.4302C88.3362 68.7242 88.4625 69.3402 88.5876 69.9507C88.6053 70.0368 88.6229 70.1228 88.6415 70.2077C88.936 71.4681 89.2304 72.6584 89.516 73.813C90.1576 76.4069 90.7546 78.8207 91.2071 81.4431C91.2909 81.963 91.3748 82.5667 91.0898 82.9524C90.9053 83.204 90.6201 83.3045 90.3518 83.3883C90.3031 83.404 90.2513 83.4208 90.1966 83.4386C88.5555 83.9709 84.3106 85.3477 83.6777 82.7512C83.3708 81.4917 83.12 80.2346 82.8695 78.979C82.463 76.9414 82.0572 74.9078 81.4139 72.8741Z" stroke="black"/>
<path d="M81.6959 72.0014C81.6456 71.6828 81.6121 71.3307 81.7462 71.0623C81.8971 70.7437 82.2325 70.6263 82.5343 70.5257C83.8248 70.1236 85.1486 69.8722 86.4725 69.6207L86.475 69.6202C86.5005 69.6163 86.5301 69.6115 86.5629 69.6061C86.8104 69.5657 87.2383 69.4959 87.4308 69.5699C87.4489 69.5767 87.4696 69.5842 87.4919 69.5922C87.6345 69.6436 87.8469 69.72 87.934 69.8214C88.1768 70.0864 88.2453 70.4312 88.3163 70.7889C88.3532 70.9747 88.3908 71.164 88.4539 71.3474C88.5609 71.6197 88.6058 71.9089 88.6508 72.1986C88.6834 72.4086 88.716 72.6188 88.7724 72.8231C88.8855 73.2253 88.9703 73.6275 89.0551 74.0297C89.0835 74.1641 89.1119 74.2986 89.1413 74.433C89.309 75.2211 89.5102 76.026 89.745 76.7974C89.8087 77.0139 89.8675 77.2304 89.9261 77.446C90.0218 77.7982 90.1169 78.1479 90.2313 78.4911C90.3152 78.7426 90.3656 79.0446 90.3153 79.2961C90.2314 79.665 89.9799 79.8326 89.6612 79.95C89.0576 80.168 88.4035 80.2854 87.7663 80.386C87.2967 80.4699 86.823 80.5537 86.3492 80.6376C85.8755 80.7214 85.4017 80.8053 84.9322 80.8891C84.8938 80.8968 84.8508 80.9065 84.8044 80.9169C84.4452 80.9976 83.8805 81.1244 83.6577 80.7382C83.5603 80.5679 83.5248 80.3002 83.4934 80.0637C83.4815 79.9744 83.4703 79.8895 83.4565 79.8159C83.4147 79.6322 83.3771 79.4526 83.3395 79.273C83.3017 79.092 83.2638 78.9111 83.2217 78.7259C83.0716 78.0805 82.9081 77.4385 82.7447 76.7968C82.543 76.0046 82.3415 75.213 82.1654 74.4162C81.981 73.6113 81.8132 72.8063 81.6959 72.0014Z" fill="white"/>
<path d="M81.6959 72.0014C81.6456 71.6828 81.6121 71.3307 81.7462 71.0623C81.8971 70.7437 82.2325 70.6263 82.5343 70.5257C83.8248 70.1236 85.1486 69.8722 86.4725 69.6207L86.475 69.6202C86.5005 69.6163 86.5301 69.6115 86.5629 69.6061C86.8104 69.5657 87.2383 69.4959 87.4308 69.5699C87.4489 69.5767 87.4696 69.5842 87.4919 69.5922C87.6345 69.6436 87.8469 69.72 87.934 69.8214C88.1768 70.0864 88.2453 70.4312 88.3163 70.7889C88.3532 70.9747 88.3908 71.164 88.4539 71.3474C88.5609 71.6197 88.6058 71.9089 88.6508 72.1986C88.6834 72.4086 88.716 72.6188 88.7724 72.8231C88.8855 73.2253 88.9703 73.6275 89.0551 74.0297C89.0835 74.1641 89.1119 74.2986 89.1413 74.433C89.309 75.2211 89.5102 76.026 89.745 76.7974C89.8087 77.0139 89.8675 77.2304 89.9261 77.446C90.0218 77.7982 90.1169 78.1479 90.2313 78.4911C90.3152 78.7426 90.3656 79.0446 90.3153 79.2961C90.2314 79.665 89.9799 79.8326 89.6612 79.95C89.0576 80.168 88.4035 80.2854 87.7663 80.386C87.2967 80.4699 86.823 80.5537 86.3492 80.6376C85.8755 80.7214 85.4017 80.8053 84.9322 80.8891C84.8938 80.8968 84.8508 80.9065 84.8044 80.9169C84.4452 80.9976 83.8805 81.1244 83.6577 80.7382C83.5603 80.5679 83.5248 80.3002 83.4934 80.0637C83.4815 79.9744 83.4703 79.8895 83.4565 79.8159C83.4147 79.6322 83.3771 79.4526 83.3395 79.273C83.3017 79.092 83.2638 78.9111 83.2217 78.7259C83.0716 78.0805 82.9081 77.4385 82.7447 76.7968C82.543 76.0046 82.3415 75.213 82.1654 74.4162C81.981 73.6113 81.8132 72.8063 81.6959 72.0014Z" stroke="black"/>
<path d="M85.4599 69.1545C85.3593 69.1545 85.2418 69.1713 85.1244 69.1881L84.3698 69.339C84.2189 69.3726 84.0345 69.4228 84.0345 69.5067C84.0345 69.5402 84.0847 69.5737 84.135 69.5905C84.3866 69.6576 85.6443 69.4899 85.6779 69.2551C85.6611 69.188 85.5773 69.1545 85.4599 69.1545Z" fill="#5E625E"/>
<path d="M85.4599 69.1545C85.3593 69.1545 85.2418 69.1713 85.1244 69.1881L84.3698 69.339C84.2189 69.3726 84.0345 69.4228 84.0345 69.5067C84.0345 69.5402 84.0847 69.5737 84.135 69.5905C84.3866 69.6576 85.6443 69.4899 85.6779 69.2551C85.6611 69.188 85.5773 69.1545 85.4599 69.1545Z" stroke="black"/>
<path d="M83.8826 69.4753C83.8323 69.425 83.7653 69.4418 83.715 69.4753C83.6646 69.5088 83.6478 69.576 83.6478 69.6263C83.6478 69.6598 83.6646 69.7101 83.6814 69.7437C83.7317 69.8107 83.8491 69.794 83.8994 69.7269C83.9497 69.6598 83.9497 69.5592 83.8994 69.4921L83.8826 69.4753Z" fill="#5E625E"/>
<path d="M83.8826 69.4753C83.8323 69.425 83.7653 69.4418 83.715 69.4753C83.6646 69.5088 83.6478 69.576 83.6478 69.6263C83.6478 69.6598 83.6646 69.7101 83.6814 69.7437C83.7317 69.8107 83.8491 69.794 83.8994 69.7269C83.9497 69.6598 83.9497 69.5592 83.8994 69.4921L83.8826 69.4753Z" stroke="black"/>
<path d="M86.9934 81.7426C86.8928 81.86 86.8593 82.0277 86.8593 82.1954C86.8593 82.2671 86.8715 82.3265 86.8856 82.3946C86.888 82.4062 86.8904 82.418 86.8929 82.4302C86.96 82.6147 87.1276 82.7656 87.312 82.8159C87.4965 82.883 87.6978 82.8662 87.8822 82.7991L87.8833 82.7987C87.9332 82.7821 87.9832 82.7654 88.0165 82.7321C88.0613 82.7022 88.0794 82.6456 88.0947 82.598C88.0965 82.5922 88.0983 82.5866 88.1002 82.5811C88.1673 82.3631 88.1673 82.1283 88.0499 81.9271C87.8487 81.5749 87.2785 81.4073 86.9934 81.7426Z" fill="#EBEFEB"/>
<path d="M86.9934 81.7426C86.8928 81.86 86.8593 82.0277 86.8593 82.1954C86.8593 82.2671 86.8715 82.3265 86.8856 82.3946C86.888 82.4062 86.8904 82.418 86.8929 82.4302C86.96 82.6147 87.1276 82.7656 87.312 82.8159C87.4965 82.883 87.6978 82.8662 87.8822 82.7991L87.8833 82.7987C87.9332 82.7821 87.9832 82.7654 88.0165 82.7321C88.0613 82.7022 88.0794 82.6456 88.0947 82.598C88.0965 82.5922 88.0983 82.5866 88.1002 82.5811C88.1673 82.3631 88.1673 82.1283 88.0499 81.9271C87.8487 81.5749 87.2785 81.4073 86.9934 81.7426Z" stroke="black"/>
<path d="M77.0731 77.1847C76.2514 76.1618 74.9433 75.5413 73.6353 75.5748C73.9371 75.273 74.2559 74.7699 73.954 74.4513C73.7695 74.2501 73.4508 74.2836 73.1825 74.3171C72.0422 74.4513 70.8685 74.3507 69.7449 74.0321C69.6945 74.0153 69.644 74.0027 69.5935 73.9901C69.5434 73.9776 69.4932 73.965 69.443 73.9483C62.7185 71.4329 56.2121 68.3473 50.0075 64.7419C50.4938 62.5283 50.3932 60.231 50.2925 57.9671L50.2733 57.5499C50.1288 54.4203 49.985 51.3048 49.8565 48.1739C49.8062 46.9162 49.6889 45.5579 48.8336 44.6524C47.3076 43.0593 44.373 44.099 43.3501 46.061C42.3271 48.0062 42.6122 50.3707 42.9308 52.5507C43.3588 55.4605 43.7867 58.3746 44.2146 61.2886C44.6252 64.0845 45.0357 66.8803 45.4462 69.672C45.5468 70.326 45.6643 71.0304 46.1338 71.4999C46.4913 71.8574 47.0063 71.9945 47.4957 72.1248C47.5113 72.1289 47.5269 72.1331 47.5424 72.1372C50.9245 73.0391 54.3024 73.9368 57.6804 74.8345C61.0856 75.7395 64.4908 76.6444 67.9002 77.5536C67.9067 77.5472 67.9106 77.5408 67.914 77.5353C67.9195 77.5264 67.9235 77.52 67.9338 77.52C70.3989 78.9454 73.4341 79.3311 76.1507 78.5094C76.4358 78.4256 76.7545 78.3082 76.9222 78.0566C77.0899 77.7716 77.1066 77.4698 77.0731 77.1847Z" fill="#EADDD0"/>
<path d="M77.0731 77.1847C76.2514 76.1618 74.9433 75.5413 73.6353 75.5748C73.9371 75.273 74.2559 74.7699 73.954 74.4513C73.7695 74.2501 73.4508 74.2836 73.1825 74.3171C72.0422 74.4513 70.8685 74.3507 69.7449 74.0321C69.6945 74.0153 69.644 74.0027 69.5935 73.9901C69.5434 73.9776 69.4932 73.965 69.443 73.9483C62.7185 71.4329 56.2121 68.3473 50.0075 64.7419C50.4938 62.5283 50.3932 60.231 50.2925 57.9671L50.2733 57.5499C50.1288 54.4203 49.985 51.3048 49.8565 48.1739C49.8062 46.9162 49.6889 45.5579 48.8336 44.6524C47.3076 43.0593 44.373 44.099 43.3501 46.061C42.3271 48.0062 42.6122 50.3707 42.9308 52.5507C43.3588 55.4605 43.7867 58.3746 44.2146 61.2886C44.6252 64.0845 45.0357 66.8803 45.4462 69.672C45.5468 70.326 45.6643 71.0304 46.1338 71.4999C46.4913 71.8574 47.0063 71.9945 47.4957 72.1248C47.5113 72.1289 47.5269 72.1331 47.5424 72.1372C50.9245 73.0391 54.3024 73.9368 57.6804 74.8345C61.0856 75.7395 64.4908 76.6444 67.9002 77.5536C67.9067 77.5472 67.9106 77.5408 67.914 77.5353C67.9195 77.5264 67.9235 77.52 67.9338 77.52C70.3989 78.9454 73.4341 79.3311 76.1507 78.5094C76.4358 78.4256 76.7545 78.3082 76.9222 78.0566C77.0899 77.7716 77.1066 77.4698 77.0731 77.1847Z" stroke="black"/>
<path d="M68.0023 77.7002C67.952 77.8344 67.8851 77.9686 67.7509 78.0356C67.6488 78.094 67.5214 78.0762 67.4017 78.0595C67.3837 78.057 67.3659 78.0545 67.3484 78.0523C66.409 77.8789 65.4645 77.7091 64.5171 77.5387C58.4121 76.4411 52.188 75.322 46.454 73.0719L46.4132 73.0554C45.8894 72.8428 45.3538 72.6253 44.9615 72.2167C44.492 71.7304 44.2739 71.0428 44.0895 70.3888C41.9262 62.8259 39.8804 55.0953 40.1487 47.2473C40.199 45.6039 40.417 43.8431 41.4903 42.6022C42.6809 41.2439 44.6093 40.8582 46.4036 40.6234C47.5607 40.4725 48.8855 40.3887 49.791 41.1265C50.6798 41.8476 50.8642 43.1053 50.9984 44.2288C51.2087 46.1225 51.4234 48.0203 51.638 49.9182C51.851 51.8018 52.064 53.6854 52.2729 55.5648C52.5579 58.1138 52.843 60.6627 53.1449 63.2116C53.1952 63.6979 53.2623 64.2009 53.4803 64.6369C53.9331 65.5425 54.956 65.9785 55.8951 66.3642C59.2322 67.7225 62.5189 69.2318 65.7386 70.8752C65.8944 70.9561 66.1085 71.0574 66.3571 71.1748C67.4994 71.7148 69.3673 72.5978 69.629 73.4241C69.7625 73.8372 69.3945 74.4527 69.0923 74.9581C68.9774 75.1504 68.8719 75.3267 68.8073 75.4699C68.6337 75.8748 68.5213 76.2268 68.4097 76.5759C68.2949 76.9354 68.181 77.2919 68.0023 77.7002Z" fill="#E8E8E8"/>
<path d="M68.0023 77.7002C67.952 77.8344 67.8851 77.9686 67.7509 78.0356C67.6488 78.094 67.5214 78.0762 67.4017 78.0595C67.3837 78.057 67.3659 78.0545 67.3484 78.0523C66.409 77.8789 65.4645 77.7091 64.5171 77.5387C58.4121 76.4411 52.188 75.322 46.454 73.0719L46.4132 73.0554C45.8894 72.8428 45.3538 72.6253 44.9615 72.2167C44.492 71.7304 44.2739 71.0428 44.0895 70.3888C41.9262 62.8259 39.8804 55.0953 40.1487 47.2473C40.199 45.6039 40.417 43.8431 41.4903 42.6022C42.6809 41.2439 44.6093 40.8582 46.4036 40.6234C47.5607 40.4725 48.8855 40.3887 49.791 41.1265C50.6798 41.8476 50.8642 43.1053 50.9984 44.2288C51.2087 46.1225 51.4234 48.0203 51.638 49.9182C51.851 51.8018 52.064 53.6854 52.2729 55.5648C52.5579 58.1138 52.843 60.6627 53.1449 63.2116C53.1952 63.6979 53.2623 64.2009 53.4803 64.6369C53.9331 65.5425 54.956 65.9785 55.8951 66.3642C59.2322 67.7225 62.5189 69.2318 65.7386 70.8752C65.8944 70.9561 66.1085 71.0574 66.3571 71.1748C67.4994 71.7148 69.3673 72.5978 69.629 73.4241C69.7625 73.8372 69.3945 74.4527 69.0923 74.9581C68.9774 75.1504 68.8719 75.3267 68.8073 75.4699C68.6337 75.8748 68.5213 76.2268 68.4097 76.5759C68.2949 76.9354 68.181 77.2919 68.0023 77.7002Z" stroke="black"/>
<path d="M42.5886 182.898C43.3432 183.451 42.3203 183.871 41.8172 183.921C40.9117 183.988 39.9726 183.954 39.1006 183.77C38.8658 183.72 38.631 183.669 38.4466 183.535C38.3229 183.453 38.2331 183.348 38.14 183.239C38.1195 183.215 38.0989 183.191 38.0777 183.166C37.9878 183.05 37.8578 182.912 37.7183 182.764C37.4155 182.442 37.068 182.073 36.9877 181.774C36.9141 181.465 37.0989 181.156 37.2699 180.87C37.2938 180.831 37.3173 180.791 37.3399 180.752C37.4447 180.58 37.5672 180.407 37.6916 180.232C38.065 179.705 38.4549 179.155 38.4298 178.538C39.2837 178.618 40.1185 178.556 40.9232 178.495C41.9675 178.417 42.9611 178.342 43.8798 178.588C43.9292 178.805 44.0311 179.005 44.1275 179.195C44.2919 179.518 44.4401 179.81 44.2836 180.095C44.4218 179.866 47.319 180.436 48.8454 180.737C49.2741 180.821 49.5946 180.884 49.7156 180.902C50.6211 181.053 51.5266 181.187 52.4322 181.255C52.6166 181.268 52.847 181.259 53.0939 181.248C53.7899 181.218 54.6169 181.183 54.914 181.64C55.0481 181.858 55.0984 182.11 55.132 182.361C55.1488 182.546 55.1487 182.747 55.0816 182.915C54.9642 183.217 54.6289 183.451 54.2767 183.552C51.9023 184.303 49.5279 183.869 47.1381 183.432C45.629 183.156 44.1138 182.879 42.5886 182.898Z" fill="#999999"/>
<path d="M42.5886 182.898C43.3432 183.451 42.3203 183.871 41.8172 183.921C40.9117 183.988 39.9726 183.954 39.1006 183.77C38.8658 183.72 38.631 183.669 38.4466 183.535C38.3229 183.453 38.2331 183.348 38.14 183.239C38.1195 183.215 38.0989 183.191 38.0777 183.166C37.9878 183.05 37.8578 182.912 37.7183 182.764C37.4155 182.442 37.068 182.073 36.9877 181.774C36.9141 181.465 37.0989 181.156 37.2699 180.87C37.2938 180.831 37.3173 180.791 37.3399 180.752C37.4447 180.58 37.5672 180.407 37.6916 180.232C38.065 179.705 38.4549 179.155 38.4298 178.538C39.2837 178.618 40.1185 178.556 40.9232 178.495C41.9675 178.417 42.9611 178.342 43.8798 178.588C43.9292 178.805 44.0311 179.005 44.1275 179.195C44.2919 179.518 44.4401 179.81 44.2836 180.095C44.4218 179.866 47.319 180.436 48.8454 180.737C49.2741 180.821 49.5946 180.884 49.7156 180.902C50.6211 181.053 51.5266 181.187 52.4322 181.255C52.6166 181.268 52.847 181.259 53.0939 181.248C53.7899 181.218 54.6169 181.183 54.914 181.64C55.0481 181.858 55.0984 182.11 55.132 182.361C55.1488 182.546 55.1487 182.747 55.0816 182.915C54.9642 183.217 54.6289 183.451 54.2767 183.552C51.9023 184.303 49.5279 183.869 47.1381 183.432C45.629 183.156 44.1138 182.879 42.5886 182.898Z" stroke="black"/>
<path d="M55.0839 87.782C54.8324 87.0274 54.0275 86.6248 53.2729 86.323C48.3428 84.4113 42.9263 84.2101 37.6272 84.2436C34.8771 84.2604 32.1437 84.3274 29.3936 84.4448C29.2852 84.4496 29.1705 84.4542 29.0504 84.459C27.0519 84.5391 23.552 84.6793 22.6187 86.6249C21.512 88.9391 20.5394 93.5171 21.1096 95.848C21.6135 97.938 21.7796 100.842 21.9548 103.904C22.1352 107.058 22.3252 110.38 22.9038 113.153L22.5517 180.75C23.4917 180.777 24.4318 180.798 25.3719 180.819C26.2597 180.84 27.1475 180.86 28.0353 180.884C28.2609 174.638 29.9095 168.521 31.5552 162.415C31.8665 161.26 32.1776 160.105 32.479 158.95C34.4746 151.27 36.0341 143.506 37.1912 135.691L37.2206 136.801C37.5965 150.988 37.9728 165.19 38.3651 179.375H43.8486C43.8769 173.126 45.3289 166.973 46.7775 160.834C47.051 159.675 47.3244 158.516 47.5881 157.357C51.4451 140.437 54.7486 113.908 54.4635 96.6697C54.477 96.4633 54.4904 96.2569 54.5038 96.0505C54.6567 93.6919 54.8091 91.3412 55.1175 89.0899C55.1678 88.6539 55.2181 88.2012 55.0839 87.782Z" fill="#4D4D4D"/>
<path d="M55.0839 87.782C54.8324 87.0274 54.0275 86.6248 53.2729 86.323C48.3428 84.4113 42.9263 84.2101 37.6272 84.2436C34.8771 84.2604 32.1437 84.3274 29.3936 84.4448C29.2852 84.4496 29.1705 84.4542 29.0504 84.459C27.0519 84.5391 23.552 84.6793 22.6187 86.6249C21.512 88.9391 20.5394 93.5171 21.1096 95.848C21.6135 97.938 21.7796 100.842 21.9548 103.904C22.1352 107.058 22.3252 110.38 22.9038 113.153L22.5517 180.75C23.4917 180.777 24.4318 180.798 25.3719 180.819C26.2597 180.84 27.1475 180.86 28.0353 180.884C28.2609 174.638 29.9095 168.521 31.5552 162.415C31.8665 161.26 32.1776 160.105 32.479 158.95C34.4746 151.27 36.0341 143.506 37.1912 135.691L37.2206 136.801C37.5965 150.988 37.9728 165.19 38.3651 179.375H43.8486C43.8769 173.126 45.3289 166.973 46.7775 160.834C47.051 159.675 47.3244 158.516 47.5881 157.357C51.4451 140.437 54.7486 113.908 54.4635 96.6697C54.477 96.4633 54.4904 96.2569 54.5038 96.0505C54.6567 93.6919 54.8091 91.3412 55.1175 89.0899C55.1678 88.6539 55.2181 88.2012 55.0839 87.782Z" stroke="black"/>
<path d="M26.6973 184.354C27.4351 184.924 26.3955 185.327 25.8924 185.36C24.9869 185.411 24.0478 185.344 23.1758 185.142C22.941 185.092 22.7062 185.025 22.5218 184.891C22.3899 184.803 22.2965 184.677 22.208 184.557C22.1952 184.539 22.1824 184.522 22.1697 184.505C22.0812 184.386 21.9554 184.245 21.8215 184.095C21.5245 183.763 21.1877 183.386 21.1299 183.097C21.0555 182.784 21.2581 182.472 21.4452 182.184C21.4691 182.147 21.4928 182.11 21.5156 182.074C21.6234 181.908 21.7497 181.74 21.8785 181.569C22.2704 181.048 22.6854 180.496 22.6727 179.877C23.518 179.979 24.3537 179.936 25.1607 179.894C26.2109 179.839 27.2124 179.787 28.1227 180.061C28.1655 180.275 28.2594 180.476 28.3485 180.666C28.5042 180.998 28.6454 181.3 28.4748 181.587C28.6192 181.328 32.1186 182.124 33.4429 182.426C33.657 182.474 33.8143 182.51 33.8913 182.526C34.7801 182.694 35.6856 182.845 36.608 182.946C36.7938 182.964 37.0263 182.959 37.275 182.955C37.969 182.941 38.7891 182.925 39.073 183.382C39.2071 183.6 39.2407 183.851 39.2574 184.103C39.2742 184.287 39.2575 184.488 39.1904 184.656C39.0562 184.958 38.7209 185.176 38.3687 185.277C35.9556 185.978 33.587 185.487 31.2042 184.994C29.7122 184.684 28.2147 184.374 26.6973 184.354Z" fill="#999999"/>
<path d="M26.6973 184.354C27.4351 184.924 26.3955 185.327 25.8924 185.36C24.9869 185.411 24.0478 185.344 23.1758 185.142C22.941 185.092 22.7062 185.025 22.5218 184.891C22.3899 184.803 22.2965 184.677 22.208 184.557C22.1952 184.539 22.1824 184.522 22.1697 184.505C22.0812 184.386 21.9554 184.245 21.8215 184.095C21.5245 183.763 21.1877 183.386 21.1299 183.097C21.0555 182.784 21.2581 182.472 21.4452 182.184C21.4691 182.147 21.4928 182.11 21.5156 182.074C21.6234 181.908 21.7497 181.74 21.8785 181.569C22.2704 181.048 22.6854 180.496 22.6727 179.877C23.518 179.979 24.3537 179.936 25.1607 179.894C26.2109 179.839 27.2124 179.787 28.1227 180.061C28.1655 180.275 28.2594 180.476 28.3485 180.666C28.5042 180.998 28.6454 181.3 28.4748 181.587C28.6192 181.328 32.1186 182.124 33.4429 182.426C33.657 182.474 33.8143 182.51 33.8913 182.526C34.7801 182.694 35.6856 182.845 36.608 182.946C36.7938 182.964 37.0263 182.959 37.275 182.955C37.969 182.941 38.7891 182.925 39.073 183.382C39.2071 183.6 39.2407 183.851 39.2574 184.103C39.2742 184.287 39.2575 184.488 39.1904 184.656C39.0562 184.958 38.7209 185.176 38.3687 185.277C35.9556 185.978 33.587 185.487 31.2042 184.994C29.7122 184.684 28.2147 184.374 26.6973 184.354Z" stroke="black"/>
<path d="M46.3914 7.54132C44.5636 8.93317 43.4568 11.0629 42.4339 13.1255C41.1762 15.6912 39.9353 18.3575 39.7509 21.2083C39.7123 21.8148 39.7194 22.4323 39.7265 23.0489C39.744 24.5807 39.7615 26.1073 39.08 27.4464C42.6854 28.8214 46.2238 30.3475 49.695 32.0244C54.6419 26.675 58.0796 19.9506 59.505 12.8069C59.5553 12.5721 59.5888 12.3206 59.505 12.0858C59.4043 11.8343 59.1696 11.6665 58.9516 11.5156C55.8982 9.4911 52.3686 8.33696 48.8665 7.19184L48.7559 7.15566C48.7344 7.14883 48.7129 7.14195 48.6913 7.13504C48.3421 7.0233 47.9788 6.90706 47.6156 6.95444C47.1629 7.00475 46.7603 7.25624 46.3914 7.54132Z" fill="#EADDD0"/>
<path d="M46.3914 7.54132C44.5636 8.93317 43.4568 11.0629 42.4339 13.1255C41.1762 15.6912 39.9353 18.3575 39.7509 21.2083C39.7123 21.8148 39.7194 22.4323 39.7265 23.0489C39.744 24.5807 39.7615 26.1073 39.08 27.4464C42.6854 28.8214 46.2238 30.3475 49.695 32.0244C54.6419 26.675 58.0796 19.9506 59.505 12.8069C59.5553 12.5721 59.5888 12.3206 59.505 12.0858C59.4043 11.8343 59.1696 11.6665 58.9516 11.5156C55.8982 9.4911 52.3686 8.33696 48.8665 7.19184L48.7559 7.15566C48.7344 7.14883 48.7129 7.14195 48.6913 7.13504C48.3421 7.0233 47.9788 6.90706 47.6156 6.95444C47.1629 7.00475 46.7603 7.25624 46.3914 7.54132Z" stroke="black"/>
<path d="M54.7696 83.1662C54.6019 79.4434 54.5181 75.7038 54.5684 71.981C54.6522 63.4287 54.1995 54.9267 53.579 46.3912C53.3275 42.9367 53.0424 39.499 52.7238 36.0445C52.6064 34.703 48.6992 33.2944 47.7266 33.0932C47.1397 32.9758 46.5695 32.7913 46.0161 32.6069C45.4795 32.4224 44.9428 32.2212 44.423 32.0199C43.0898 31.5085 41.7608 30.997 40.4319 30.4856C39.1029 29.9741 37.7739 29.4627 36.4408 28.9512C36.0384 28.8003 35.6192 28.6493 35.2167 28.7332C34.8981 28.8003 34.6298 29.0015 34.3783 29.2027C29.5732 33.0826 28.1467 39.3196 26.8282 45.0842C26.7847 45.2745 26.7413 45.4642 26.6979 45.6533C23.6291 58.9681 21.902 72.568 21.5331 86.1846C21.5331 86.1846 22.3212 88.3478 24.9875 89.8738C27.6538 91.3998 37.2626 92.5233 37.2626 92.5233L50.3426 91.098C50.2923 91.1147 54.9708 89.6223 54.7696 83.1662Z" fill="#EFEFEF"/>
<path d="M54.7696 83.1662C54.6019 79.4434 54.5181 75.7038 54.5684 71.981C54.6522 63.4287 54.1995 54.9267 53.579 46.3912C53.3275 42.9367 53.0424 39.499 52.7238 36.0445C52.6064 34.703 48.6992 33.2944 47.7266 33.0932C47.1397 32.9758 46.5695 32.7913 46.0161 32.6069C45.4795 32.4224 44.9428 32.2212 44.423 32.0199C43.0898 31.5085 41.7608 30.997 40.4319 30.4856C39.1029 29.9741 37.7739 29.4627 36.4408 28.9512C36.0384 28.8003 35.6192 28.6493 35.2167 28.7332C34.8981 28.8003 34.6298 29.0015 34.3783 29.2027C29.5732 33.0826 28.1467 39.3196 26.8282 45.0842C26.7847 45.2745 26.7413 45.4642 26.6979 45.6533C23.6291 58.9681 21.902 72.568 21.5331 86.1846C21.5331 86.1846 22.3212 88.3478 24.9875 89.8738C27.6538 91.3998 37.2626 92.5233 37.2626 92.5233L50.3426 91.098C50.2923 91.1147 54.9708 89.6223 54.7696 83.1662Z" stroke="black"/>
<path d="M72.3463 72.2512C72.514 71.4127 72.7153 70.5072 73.2687 69.9203C73.9059 69.2495 74.7947 69.2663 75.5493 69.4004C76.4213 69.5513 77.2933 69.8029 78.115 70.1215L78.1173 70.1224C78.4708 70.257 79.3061 70.575 79.5236 70.9431C79.7833 71.3904 79.6086 71.9865 79.4373 72.5714C79.4095 72.6664 79.3817 72.7612 79.3559 72.8549C78.9968 74.1413 78.6737 75.3626 78.3602 76.5473C77.6931 79.069 77.0698 81.4247 76.2369 83.889C76.0692 84.3921 75.8512 84.9454 75.4488 85.1802C75.1972 85.3311 74.912 85.2977 74.6437 85.2641C74.6164 85.2606 74.5879 85.2569 74.5585 85.2531C73.0541 85.0596 68.9056 84.526 69.5963 81.9438C69.9397 80.6564 70.3323 79.395 70.7243 78.136C71.3278 76.1972 71.9295 74.2643 72.3463 72.2512Z" fill="#3D3D3D"/>
<path d="M72.3463 72.2512C72.514 71.4127 72.7153 70.5072 73.2687 69.9203C73.9059 69.2495 74.7947 69.2663 75.5493 69.4004C76.4213 69.5513 77.2933 69.8029 78.115 70.1215L78.1173 70.1224C78.4708 70.257 79.3061 70.575 79.5236 70.9431C79.7833 71.3904 79.6086 71.9865 79.4373 72.5714C79.4095 72.6664 79.3817 72.7612 79.3559 72.8549C78.9968 74.1413 78.6737 75.3626 78.3602 76.5473C77.6931 79.069 77.0698 81.4247 76.2369 83.889C76.0692 84.3921 75.8512 84.9454 75.4488 85.1802C75.1972 85.3311 74.912 85.2977 74.6437 85.2641C74.6164 85.2606 74.5879 85.2569 74.5585 85.2531C73.0541 85.0596 68.9056 84.526 69.5963 81.9438C69.9397 80.6564 70.3323 79.395 70.7243 78.136C71.3278 76.1972 71.9295 74.2643 72.3463 72.2512Z" stroke="black"/>
<path d="M72.9711 71.5801C72.9754 71.5693 72.9796 71.5584 72.9838 71.5475C73.097 71.2556 73.2144 70.9531 73.4406 70.7752C73.7089 70.5572 74.0276 70.5907 74.3127 70.6243C75.5201 70.8087 76.7107 71.1274 77.8845 71.4627C78.069 71.513 78.5385 71.6472 78.6726 71.8149C78.6816 71.8257 78.6916 71.8375 78.7023 71.8501C78.791 71.9547 78.9278 72.1162 78.9578 72.2509C79.0327 72.5825 78.9302 72.9073 78.8243 73.2426C78.7642 73.433 78.703 73.6269 78.6726 73.8273C78.6252 74.1122 78.5293 74.3809 78.4337 74.6488C78.3605 74.8539 78.2875 75.0585 78.2366 75.2694C78.1192 75.806 77.9515 76.3259 77.7838 76.8457C77.549 77.6171 77.3478 78.4052 77.1634 79.1933C77.1263 79.3512 77.0879 79.5077 77.0496 79.6637C76.9495 80.0712 76.8505 80.4747 76.7777 80.887C76.7274 81.1553 76.6269 81.4237 76.476 81.6417C76.2412 81.9435 75.9729 81.977 75.6711 81.9435C75.1447 81.8833 74.6318 81.7423 74.1323 81.605C74.0749 81.5892 74.0177 81.5735 73.9606 81.5579C73.5401 81.4317 73.1238 81.3098 72.7076 81.1878C72.2938 81.0666 71.88 80.9454 71.462 80.82C71.4244 80.8096 71.3817 80.7992 71.3356 80.7879C71.0113 80.7088 70.5228 80.5897 70.5228 80.1492C70.5228 79.9759 70.5998 79.7607 70.6724 79.5576C70.7122 79.4463 70.7507 79.3387 70.7744 79.2437C70.875 78.8915 70.9755 78.5394 71.0761 78.1704C71.2304 77.6003 71.3793 77.0303 71.5282 76.4602C71.7516 75.6049 71.9751 74.7496 72.2165 73.8943C72.4513 73.1229 72.7027 72.3515 72.9711 71.5801Z" fill="white"/>
<path d="M72.9711 71.5801C72.9754 71.5693 72.9796 71.5584 72.9838 71.5475C73.097 71.2556 73.2144 70.9531 73.4406 70.7752C73.7089 70.5572 74.0276 70.5907 74.3127 70.6243C75.5201 70.8087 76.7107 71.1274 77.8845 71.4627C78.069 71.513 78.5385 71.6472 78.6726 71.8149C78.6816 71.8257 78.6916 71.8375 78.7023 71.8501C78.791 71.9547 78.9278 72.1162 78.9578 72.2509C79.0327 72.5825 78.9302 72.9073 78.8243 73.2426C78.7642 73.433 78.703 73.6269 78.6726 73.8273C78.6252 74.1122 78.5293 74.3809 78.4337 74.6488C78.3605 74.8539 78.2875 75.0585 78.2366 75.2694C78.1192 75.806 77.9515 76.3259 77.7838 76.8457C77.549 77.6171 77.3478 78.4052 77.1634 79.1933C77.1263 79.3512 77.0879 79.5077 77.0496 79.6637C76.9495 80.0712 76.8505 80.4747 76.7777 80.887C76.7274 81.1553 76.6269 81.4237 76.476 81.6417C76.2412 81.9435 75.9729 81.977 75.6711 81.9435C75.1447 81.8833 74.6318 81.7423 74.1323 81.605C74.0749 81.5892 74.0177 81.5735 73.9606 81.5579C73.5401 81.4317 73.1238 81.3098 72.7076 81.1878C72.2938 81.0666 71.88 80.9454 71.462 80.82C71.4244 80.8096 71.3817 80.7992 71.3356 80.7879C71.0113 80.7088 70.5228 80.5897 70.5228 80.1492C70.5228 79.9759 70.5998 79.7607 70.6724 79.5576C70.7122 79.4463 70.7507 79.3387 70.7744 79.2437C70.875 78.8915 70.9755 78.5394 71.0761 78.1704C71.2304 77.6003 71.3793 77.0303 71.5282 76.4602C71.7516 75.6049 71.9751 74.7496 72.2165 73.8943C72.4513 73.1229 72.7027 72.3515 72.9711 71.5801Z" stroke="black"/>
<path d="M77.2747 70.6033C77.1909 70.553 77.0902 70.5194 76.9896 70.5027C76.8806 70.4692 76.7674 70.4398 76.6542 70.4105C76.541 70.3811 76.4278 70.3518 76.3188 70.3182C76.1846 70.2847 76.017 70.2511 75.9835 70.3182C75.9667 70.3518 75.9835 70.4021 76.0171 70.4356C76.1847 70.6033 77.2747 70.9722 77.392 70.771C77.4256 70.7207 77.3586 70.6536 77.2747 70.6033Z" fill="#5E625E"/>
<path d="M77.2747 70.6033C77.1909 70.553 77.0902 70.5194 76.9896 70.5027C76.8806 70.4692 76.7674 70.4398 76.6542 70.4105C76.541 70.3811 76.4278 70.3518 76.3188 70.3182C76.1846 70.2847 76.017 70.2511 75.9835 70.3182C75.9667 70.3518 75.9835 70.4021 76.0171 70.4356C76.1847 70.6033 77.2747 70.9722 77.392 70.771C77.4256 70.7207 77.3586 70.6536 77.2747 70.6033Z" stroke="black"/>
<path d="M75.8655 70.2181C75.8487 70.1678 75.7983 70.1343 75.7312 70.151C75.6809 70.1678 75.6307 70.2014 75.6139 70.2684C75.5972 70.302 75.5804 70.3522 75.5971 70.3857C75.6139 70.4696 75.6977 70.5032 75.7648 70.4697C75.8319 70.4361 75.8655 70.3523 75.8655 70.2684V70.2181Z" fill="#5E625E"/>
<path d="M75.8655 70.2181C75.8487 70.1678 75.7983 70.1343 75.7312 70.151C75.6809 70.1678 75.6307 70.2014 75.6139 70.2684C75.5972 70.302 75.5804 70.3522 75.5971 70.3857C75.6139 70.4696 75.6977 70.5032 75.7648 70.4697C75.8319 70.4361 75.8655 70.3523 75.8655 70.2684V70.2181Z" stroke="black"/>
<path d="M72.7142 82.4286C72.58 82.4957 72.4625 82.6297 72.3954 82.7807C72.3619 82.8477 72.3285 82.9316 72.3117 82.9987C72.2782 83.1999 72.3452 83.3844 72.4626 83.5185C72.58 83.6527 72.7645 83.7199 72.9322 83.7366H72.9322C72.9825 83.7366 73.0327 83.7366 73.0663 83.7198C73.1166 83.7031 73.1668 83.6694 73.2003 83.6191C73.3513 83.4682 73.4687 83.2335 73.4687 83.0155C73.4855 82.6298 73.0999 82.2441 72.7142 82.4286Z" fill="#EBEFEB"/>
<path d="M72.7142 82.4286C72.58 82.4957 72.4625 82.6297 72.3954 82.7807C72.3619 82.8477 72.3285 82.9316 72.3117 82.9987C72.2782 83.1999 72.3452 83.3844 72.4626 83.5185C72.58 83.6527 72.7645 83.7199 72.9322 83.7366H72.9322C72.9825 83.7366 73.0327 83.7366 73.0663 83.7198C73.1166 83.7031 73.1668 83.6694 73.2003 83.6191C73.3513 83.4682 73.4687 83.2335 73.4687 83.0155C73.4855 82.6298 73.0999 82.2441 72.7142 82.4286Z" stroke="black"/>
<path d="M47.5451 19.4998C46.975 18.8961 46.254 18.2254 45.4155 18.3428C44.6441 18.4434 44.1075 19.198 43.9566 19.9694C43.8398 20.5537 43.8937 21.1581 43.9474 21.7592C43.963 21.9344 43.9786 22.1094 43.99 22.2835C44.0068 22.4512 43.9901 22.6357 43.8894 22.7531C43.7855 22.8719 43.6157 22.8855 43.4501 22.8987C43.4287 22.9004 43.4074 22.9021 43.3864 22.904C42.6988 22.9711 42.0617 23.34 41.6592 23.8934C41.5361 24.0643 41.4354 24.252 41.3342 24.4405C41.1872 24.7143 41.0392 24.9898 40.8207 25.2182C40.3344 25.738 39.5965 25.9057 38.8922 26.0063C38.2047 26.1069 37.534 26.1908 36.8464 26.2243C36.2931 26.2579 35.639 26.2243 35.3204 25.7548C35.2533 25.6709 35.2198 25.5703 35.2366 25.4529C35.2647 25.2984 35.3987 25.2144 35.5302 25.1321C35.5556 25.1162 35.581 25.1003 35.6054 25.084C36.1756 24.6983 36.3769 23.9437 36.4104 23.2561C36.4216 23.1029 36.4278 22.9481 36.434 22.7929C36.4558 22.2515 36.4777 21.7056 36.7123 21.2103C36.88 20.8582 37.1482 20.5563 37.4165 20.288C39.3618 18.2757 41.9107 16.9342 44.577 16.1628C44.6767 16.1343 44.8153 16.0907 44.9816 16.0384C45.9903 15.7212 48.0163 15.084 48.5345 15.5591C48.9304 15.92 48.3723 17.3157 47.9436 18.3878C47.7549 18.8598 47.5912 19.2691 47.5451 19.4998Z" fill="#D7C68E"/>
<path d="M47.5451 19.4998C46.975 18.8961 46.254 18.2254 45.4155 18.3428C44.6441 18.4434 44.1075 19.198 43.9566 19.9694C43.8398 20.5537 43.8937 21.1581 43.9474 21.7592C43.963 21.9344 43.9786 22.1094 43.99 22.2835C44.0068 22.4512 43.9901 22.6357 43.8894 22.7531C43.7855 22.8719 43.6157 22.8855 43.4501 22.8987C43.4287 22.9004 43.4074 22.9021 43.3864 22.904C42.6988 22.9711 42.0617 23.34 41.6592 23.8934C41.5361 24.0643 41.4354 24.252 41.3342 24.4405C41.1872 24.7143 41.0392 24.9898 40.8207 25.2182C40.3344 25.738 39.5965 25.9057 38.8922 26.0063C38.2047 26.1069 37.534 26.1908 36.8464 26.2243C36.2931 26.2579 35.639 26.2243 35.3204 25.7548C35.2533 25.6709 35.2198 25.5703 35.2366 25.4529C35.2647 25.2984 35.3987 25.2144 35.5302 25.1321C35.5556 25.1162 35.581 25.1003 35.6054 25.084C36.1756 24.6983 36.3769 23.9437 36.4104 23.2561C36.4216 23.1029 36.4278 22.9481 36.434 22.7929C36.4558 22.2515 36.4777 21.7056 36.7123 21.2103C36.88 20.8582 37.1482 20.5563 37.4165 20.288C39.3618 18.2757 41.9107 16.9342 44.577 16.1628C44.6767 16.1343 44.8153 16.0907 44.9816 16.0384C45.9903 15.7212 48.0163 15.084 48.5345 15.5591C48.9304 15.92 48.3723 17.3157 47.9436 18.3878C47.7549 18.8598 47.5912 19.2691 47.5451 19.4998Z" stroke="black"/>
<path d="M57.3358 15.5248C57.688 15.726 58.0234 15.9943 58.2246 16.3297C58.2995 16.4513 58.3535 16.5834 58.4069 16.7143C58.4493 16.818 58.4913 16.9209 58.5432 17.0173C58.8115 17.5371 59.3146 17.9228 59.8848 18.0402C59.8848 17.5036 59.8848 16.9502 59.9016 16.4136C59.9016 16.2962 59.9016 16.162 60.0022 16.0782C60.0727 16.0165 60.1617 16.0058 60.2522 15.9949C60.3339 15.985 60.4169 15.975 60.4884 15.9272C60.6188 15.8458 60.6383 15.6695 60.6547 15.5211C60.6552 15.5167 60.6557 15.5124 60.6561 15.508C60.6896 14.8205 60.7232 14.0994 60.4884 13.4454C60.4046 13.2107 60.2704 12.9759 60.0692 12.8417C59.8512 12.6908 59.5829 12.674 59.3146 12.674C58.0569 12.6405 55.4409 12.8082 54.4682 13.7976C53.738 14.5518 55.1615 14.9129 56.286 15.1981C56.7366 15.3124 57.1392 15.4145 57.3358 15.5248Z" fill="#D7C68E"/>
<path d="M57.3358 15.5248C57.688 15.726 58.0234 15.9943 58.2246 16.3297C58.2995 16.4513 58.3535 16.5834 58.4069 16.7143C58.4493 16.818 58.4913 16.9209 58.5432 17.0173C58.8115 17.5371 59.3146 17.9228 59.8848 18.0402C59.8848 17.5036 59.8848 16.9502 59.9016 16.4136C59.9016 16.2962 59.9016 16.162 60.0022 16.0782C60.0727 16.0165 60.1617 16.0058 60.2522 15.9949C60.3339 15.985 60.4169 15.975 60.4884 15.9272C60.6188 15.8458 60.6383 15.6695 60.6547 15.5211C60.6552 15.5167 60.6557 15.5124 60.6561 15.508C60.6896 14.8205 60.7232 14.0994 60.4884 13.4454C60.4046 13.2107 60.2704 12.9759 60.0692 12.8417C59.8512 12.6908 59.5829 12.674 59.3146 12.674C58.0569 12.6405 55.4409 12.8082 54.4682 13.7976C53.738 14.5518 55.1615 14.9129 56.286 15.1981C56.7366 15.3124 57.1392 15.4145 57.3358 15.5248Z" stroke="black"/>
<path d="M23.8149 84.863C23.8366 84.9932 23.8593 85.1237 23.8819 85.2543C24.0519 86.2336 24.2233 87.2216 24.0161 88.1833C23.8484 88.9547 23.4292 89.6422 22.9429 90.2291C20.7461 92.8787 17.1743 93.6668 13.8372 93.8848C9.91322 94.1531 5.48612 93.6165 2.92043 90.4471C1.34412 88.5019 0.773982 85.8356 0.841059 83.2867C0.907725 80.7533 1.55415 78.2698 2.18766 75.8359L2.19937 75.7909C2.97914 72.8059 3.7631 69.821 4.54706 66.8361C5.33101 63.8511 6.11496 60.8662 6.89473 57.8813C7.14627 56.9255 7.4146 55.9361 8.0686 55.2318C8.9406 54.2927 10.2653 54.0412 11.5062 53.907C13.7869 53.6387 16.1178 53.5045 18.3481 54.0244C20.2095 54.4604 23.0603 55.6846 23.9323 57.6633C24.6963 59.4153 24.4152 62.202 24.1864 64.4709C24.1239 65.0905 24.0653 65.6714 24.0329 66.1821C23.9534 67.4118 23.8548 68.6442 23.7562 69.8778C23.3558 74.8849 22.9538 79.9117 23.8149 84.863Z" fill="#736357"/>
<path d="M23.8149 84.863C23.8366 84.9932 23.8593 85.1237 23.8819 85.2543C24.0519 86.2336 24.2233 87.2216 24.0161 88.1833C23.8484 88.9547 23.4292 89.6422 22.9429 90.2291C20.7461 92.8787 17.1743 93.6668 13.8372 93.8848C9.91322 94.1531 5.48612 93.6165 2.92043 90.4471C1.34412 88.5019 0.773982 85.8356 0.841059 83.2867C0.907725 80.7533 1.55415 78.2698 2.18766 75.8359L2.19937 75.7909C2.97914 72.8059 3.7631 69.821 4.54706 66.8361C5.33101 63.8511 6.11496 60.8662 6.89473 57.8813C7.14627 56.9255 7.4146 55.9361 8.0686 55.2318C8.9406 54.2927 10.2653 54.0412 11.5062 53.907C13.7869 53.6387 16.1178 53.5045 18.3481 54.0244C20.2095 54.4604 23.0603 55.6846 23.9323 57.6633C24.6963 59.4153 24.4152 62.202 24.1864 64.4709C24.1239 65.0905 24.0653 65.6714 24.0329 66.1821C23.9534 67.4118 23.8548 68.6442 23.7562 69.8778C23.3558 74.8849 22.9538 79.9117 23.8149 84.863Z" stroke="black"/>
<path d="M27.4844 42.8415C29.4464 39.8398 32.1966 37.0561 35.9193 35.5469C39.6421 34.0376 44.4549 34.0544 47.6914 36.1841C50.8775 38.2802 51.934 41.8521 52.3532 45.1892C53.1246 51.2261 52.4705 57.3468 51.0116 63.2999C50.3912 65.8656 49.603 68.4313 48.1776 70.779C46.4336 73.6466 43.8009 76.0614 41.0675 78.342C35.7684 82.7523 29.6309 86.9111 22.2357 88.2023L22.1716 88.2132C21.4015 88.3439 20.5782 88.4837 20.0725 88.9568C19.0663 89.8959 20.0725 91.5226 21.5314 91.8747C22.9903 92.2269 24.5498 91.7405 25.9081 91.1872C32.75 88.4202 38.3341 83.9596 43.7841 79.5829C45.6958 78.0569 47.6242 76.4973 48.8149 74.5353C49.8042 72.9087 50.2403 71.0976 50.6595 69.3033L50.6974 69.1408C52.2278 62.5706 53.7659 55.967 54.2649 49.2809C54.4661 46.4636 54.4997 43.5961 53.5606 40.8795C52.6215 38.1628 50.6092 35.5971 47.5907 34.2724C45.7797 33.4842 43.717 33.1489 41.6712 33.0986C36.7578 32.9812 31.8277 34.4401 28.1385 37.1064C26.646 38.1796 25.3045 39.5044 24.7846 41.0975C24.3151 42.5229 24.5331 44.4848 26.0423 45.4239C26.2981 45.0361 26.5174 44.6077 26.74 44.1727C26.9699 43.7236 27.2034 43.2674 27.4844 42.8415Z" fill="#736357"/>
<path d="M27.4844 42.8415C29.4464 39.8398 32.1966 37.0561 35.9193 35.5469C39.6421 34.0376 44.4549 34.0544 47.6914 36.1841C50.8775 38.2802 51.934 41.8521 52.3532 45.1892C53.1246 51.2261 52.4705 57.3468 51.0116 63.2999C50.3912 65.8656 49.603 68.4313 48.1776 70.779C46.4336 73.6466 43.8009 76.0614 41.0675 78.342C35.7684 82.7523 29.6309 86.9111 22.2357 88.2023L22.1716 88.2132C21.4015 88.3439 20.5782 88.4837 20.0725 88.9568C19.0663 89.8959 20.0725 91.5226 21.5314 91.8747C22.9903 92.2269 24.5498 91.7405 25.9081 91.1872C32.75 88.4202 38.3341 83.9596 43.7841 79.5829C45.6958 78.0569 47.6242 76.4973 48.8149 74.5353C49.8042 72.9087 50.2403 71.0976 50.6595 69.3033L50.6974 69.1408C52.2278 62.5706 53.7659 55.967 54.2649 49.2809C54.4661 46.4636 54.4997 43.5961 53.5606 40.8795C52.6215 38.1628 50.6092 35.5971 47.5907 34.2724C45.7797 33.4842 43.717 33.1489 41.6712 33.0986C36.7578 32.9812 31.8277 34.4401 28.1385 37.1064C26.646 38.1796 25.3045 39.5044 24.7846 41.0975C24.3151 42.5229 24.5331 44.4848 26.0423 45.4239C26.2981 45.0361 26.5174 44.6077 26.74 44.1727C26.9699 43.7236 27.2034 43.2674 27.4844 42.8415Z" stroke="black"/>
<path d="M6.5756 46.159C8.77237 43.4591 12.2437 41.363 16.0838 41.2121C18.0626 41.1282 20.0245 41.5474 21.9027 42.1008C23.261 42.5033 24.6193 43.0064 25.6422 43.8784C27.2688 45.2534 27.7552 47.3328 27.8223 49.2781C27.9061 51.3574 27.6042 53.4536 26.9502 55.4659C26.6987 56.2541 26.3633 57.0422 25.6925 57.6291C24.7032 58.5011 23.1772 58.7359 21.7518 58.8198C16.4527 59.1887 11.0698 58.3838 6.22351 56.5224C6.1817 56.5065 6.14034 56.4908 6.09941 56.4752C3.38225 55.4407 2.59626 55.1415 3.37272 52.5313C4.04349 50.2675 5.01606 48.0707 6.5756 46.159Z" fill="#63564B"/>
<path d="M6.5756 46.159C8.77237 43.4591 12.2437 41.363 16.0838 41.2121C18.0626 41.1282 20.0245 41.5474 21.9027 42.1008C23.261 42.5033 24.6193 43.0064 25.6422 43.8784C27.2688 45.2534 27.7552 47.3328 27.8223 49.2781C27.9061 51.3574 27.6042 53.4536 26.9502 55.4659C26.6987 56.2541 26.3633 57.0422 25.6925 57.6291C24.7032 58.5011 23.1772 58.7359 21.7518 58.8198C16.4527 59.1887 11.0698 58.3838 6.22351 56.5224C6.1817 56.5065 6.14034 56.4908 6.09941 56.4752C3.38225 55.4407 2.59626 55.1415 3.37272 52.5313C4.04349 50.2675 5.01606 48.0707 6.5756 46.159Z" stroke="black"/>
<path d="M14.826 77.736C15.5303 77.6018 16.3687 77.451 16.8718 77.9708C17.1234 78.2391 17.224 78.6248 17.2911 78.9937C17.7438 81.5762 17.3917 84.2928 16.2682 86.674C15.8992 87.4622 15.4465 88.2168 14.8092 88.8038C13.518 89.9944 11.6733 90.3298 9.91257 90.2962C8.88965 90.2795 7.81642 90.1285 6.97796 89.5584C5.63642 88.6361 5.18371 86.8921 5.04956 85.2655C4.93217 83.8066 4.96565 82.3308 5.20042 80.8886C5.21658 80.7801 5.23338 80.6417 5.25266 80.4829C5.37336 79.4884 5.59112 77.6945 6.3575 77.4342C6.66314 77.3323 7.24389 77.5132 7.73864 77.6672C7.9768 77.7414 8.19502 77.8094 8.35305 77.8366C9.07412 77.954 9.81205 78.0379 10.5331 78.0714C11.9753 78.1217 13.4174 78.0211 14.826 77.736Z" fill="#63564B"/>
<path d="M14.826 77.736C15.5303 77.6018 16.3687 77.451 16.8718 77.9708C17.1234 78.2391 17.224 78.6248 17.2911 78.9937C17.7438 81.5762 17.3917 84.2928 16.2682 86.674C15.8992 87.4622 15.4465 88.2168 14.8092 88.8038C13.518 89.9944 11.6733 90.3298 9.91257 90.2962C8.88965 90.2795 7.81642 90.1285 6.97796 89.5584C5.63642 88.6361 5.18371 86.8921 5.04956 85.2655C4.93217 83.8066 4.96565 82.3308 5.20042 80.8886C5.21658 80.7801 5.23338 80.6417 5.25266 80.4829C5.37336 79.4884 5.59112 77.6945 6.3575 77.4342C6.66314 77.3323 7.24389 77.5132 7.73864 77.6672C7.9768 77.7414 8.19502 77.8094 8.35305 77.8366C9.07412 77.954 9.81205 78.0379 10.5331 78.0714C11.9753 78.1217 13.4174 78.0211 14.826 77.736Z" stroke="black"/>
<path d="M4.78071 78.8803C4.74717 79.0144 4.73045 79.1821 4.83107 79.2827C4.89815 79.3498 4.99872 79.3498 5.09933 79.3498C6.82664 79.4253 8.55398 79.4966 10.2813 79.5678C12.0085 79.6391 13.7357 79.7104 15.4628 79.7858C16.0832 79.8193 16.7707 79.8193 17.257 79.4336C17.8607 78.9641 17.9279 78.025 17.5589 77.371C17.19 76.717 16.4521 76.3145 15.7143 76.1636C15.0313 76.024 14.3196 76.0567 13.619 76.0889C13.5628 76.0915 13.5066 76.094 13.4505 76.0965C11.3878 76.2139 9.30846 76.3145 7.24584 76.2642C7.14176 76.2612 7.04047 76.2542 6.94166 76.2474C6.49924 76.2169 6.10668 76.1899 5.73657 76.5326C5.19996 77.0356 4.93164 78.1927 4.78071 78.8803Z" fill="#63564B"/>
<path d="M4.78071 78.8803C4.74717 79.0144 4.73045 79.1821 4.83107 79.2827C4.89815 79.3498 4.99872 79.3498 5.09933 79.3498C6.82664 79.4253 8.55398 79.4966 10.2813 79.5678C12.0085 79.6391 13.7357 79.7104 15.4628 79.7858C16.0832 79.8193 16.7707 79.8193 17.257 79.4336C17.8607 78.9641 17.9279 78.025 17.5589 77.371C17.19 76.717 16.4521 76.3145 15.7143 76.1636C15.0313 76.024 14.3196 76.0567 13.619 76.0889C13.5628 76.0915 13.5066 76.094 13.4505 76.0965C11.3878 76.2139 9.30846 76.3145 7.24584 76.2642C7.14176 76.2612 7.04047 76.2542 6.94166 76.2474C6.49924 76.2169 6.10668 76.1899 5.73657 76.5326C5.19996 77.0356 4.93164 78.1927 4.78071 78.8803Z" stroke="black"/>
<path d="M17.1737 64.3342H17.1737C17.2911 64.3342 17.4085 64.3342 17.5091 64.3845C17.6768 64.4684 17.7272 64.6863 17.7607 64.8708C17.9284 65.8602 17.9451 66.8999 17.7774 67.8892C17.7606 68.0066 17.7272 68.1241 17.6433 68.1744C17.5764 68.2246 17.476 68.2246 17.3923 68.2246H17.3918L17.2706 68.2216C13.9735 68.1388 10.6605 68.0556 7.3638 67.9396C7.34704 67.2185 7.39732 66.4807 7.54824 65.7596C7.85923 64.2858 9.32594 64.3601 10.6384 64.4266C10.9537 64.4426 11.26 64.4581 11.5393 64.4516L11.573 64.451C13.4399 64.4176 15.3068 64.3842 17.1737 64.3342Z" fill="#63564B"/>
<path d="M17.1737 64.3342H17.1737C17.2911 64.3342 17.4085 64.3342 17.5091 64.3845C17.6768 64.4684 17.7272 64.6863 17.7607 64.8708C17.9284 65.8602 17.9451 66.8999 17.7774 67.8892C17.7606 68.0066 17.7272 68.1241 17.6433 68.1744C17.5764 68.2246 17.476 68.2246 17.3923 68.2246H17.3918L17.2706 68.2216C13.9735 68.1388 10.6605 68.0556 7.3638 67.9396C7.34704 67.2185 7.39732 66.4807 7.54824 65.7596C7.85923 64.2858 9.32594 64.3601 10.6384 64.4266C10.9537 64.4426 11.26 64.4581 11.5393 64.4516L11.573 64.451C13.4399 64.4176 15.3068 64.3842 17.1737 64.3342Z" stroke="black"/>
<path d="M4.90006 61.5902C4.90006 61.7424 4.90116 61.8951 4.90227 62.0481C4.90727 62.7385 4.91231 63.436 4.81624 64.1223C4.51439 66.3861 3.1896 68.3818 1.74744 70.1761C2.02406 70.2851 2.30487 70.3941 2.58568 70.503C2.86663 70.612 3.14759 70.721 3.42436 70.83C3.56948 70.4983 3.71176 70.1666 3.85353 69.8361C4.05578 69.3646 4.25701 68.8954 4.46405 68.432C4.48448 68.384 4.50498 68.3359 4.5255 68.2878C4.84185 67.5457 5.16493 66.7878 5.36965 66.0004C5.61894 65.0345 5.68001 64.0396 5.74121 63.0426C5.74588 62.9666 5.75055 62.8905 5.75531 62.8144C5.77113 62.5137 5.83552 62.0234 5.91233 61.4385C6.16102 59.5448 6.53993 56.6595 5.82245 56.0061C4.81168 56.4617 4.8644 59.3344 4.89313 60.8998C4.89824 61.1783 4.90259 61.4155 4.90006 61.5902Z" fill="#63564B"/>
<path d="M4.90006 61.5902C4.90006 61.7424 4.90116 61.8951 4.90227 62.0481C4.90727 62.7385 4.91231 63.436 4.81624 64.1223C4.51439 66.3861 3.1896 68.3818 1.74744 70.1761C2.02406 70.2851 2.30487 70.3941 2.58568 70.503C2.86663 70.612 3.14759 70.721 3.42436 70.83C3.56948 70.4983 3.71176 70.1666 3.85353 69.8361C4.05578 69.3646 4.25701 68.8954 4.46405 68.432C4.48448 68.384 4.50498 68.3359 4.5255 68.2878C4.84185 67.5457 5.16493 66.7878 5.36965 66.0004C5.61894 65.0345 5.68001 64.0396 5.74121 63.0426C5.74588 62.9666 5.75055 62.8905 5.75531 62.8144C5.77113 62.5137 5.83552 62.0234 5.91233 61.4385C6.16102 59.5448 6.53993 56.6595 5.82245 56.0061C4.81168 56.4617 4.8644 59.3344 4.89313 60.8998C4.89824 61.1783 4.90259 61.4155 4.90006 61.5902Z" stroke="black"/>
<path d="M57.8571 90.4673C58.5278 91.0375 59.2322 91.6076 60.0706 91.8592C60.9091 92.1107 61.932 91.9765 62.4854 91.289C63.0723 90.5511 62.9382 89.4444 62.4184 88.6562C61.9038 87.8761 61.0936 87.359 60.3129 86.8607L60.2886 86.8452C60.8253 87.0464 61.3787 86.3756 61.2613 85.8222C61.1271 85.252 60.5737 84.9 60.0203 84.7323C59.7879 84.6619 59.5495 84.6151 59.3115 84.5684C58.9828 84.5039 58.6546 84.4395 58.3434 84.313C58.1843 84.2527 58.0001 84.2013 57.8101 84.1484C57.4194 84.0394 57.0044 83.9237 56.7336 83.7093C55.6413 82.848 54.9634 82.1578 54.0406 81.2184C53.4901 80.6579 52.8525 80.0087 51.9878 79.1816C51.4252 78.648 50.9247 78.0893 50.4115 77.5167C50.3281 77.4236 50.2444 77.3302 50.16 77.2364C50.0551 77.1189 49.9523 76.9993 49.8495 76.8797C49.5414 76.5213 49.2334 76.163 48.8688 75.8613C48.5206 75.5698 48.0589 75.3877 47.5972 75.2056C47.1028 75.0107 46.6083 74.8157 46.2528 74.4862C45.6994 73.9831 45.1963 73.5471 44.4081 73.8993C43.1504 74.4862 43.3182 76.3476 43.9219 77.3202C44.6528 78.4776 45.8174 79.5287 46.9142 80.5186C47.3271 80.8913 47.7304 81.2553 48.0974 81.6131C49.6066 83.0888 51.1494 84.531 52.7089 85.9564C54.3858 87.4824 56.1131 88.9916 57.8571 90.4673Z" fill="#EDD5BE"/>
<path d="M57.8571 90.4673C58.5278 91.0375 59.2322 91.6076 60.0706 91.8592C60.9091 92.1107 61.932 91.9765 62.4854 91.289C63.0723 90.5511 62.9382 89.4444 62.4184 88.6562C61.9038 87.8761 61.0936 87.359 60.3129 86.8607L60.2886 86.8452C60.8253 87.0464 61.3787 86.3756 61.2613 85.8222C61.1271 85.252 60.5737 84.9 60.0203 84.7323C59.7879 84.6619 59.5495 84.6151 59.3115 84.5684C58.9828 84.5039 58.6546 84.4395 58.3434 84.313C58.1843 84.2527 58.0001 84.2013 57.8101 84.1484C57.4194 84.0394 57.0044 83.9237 56.7336 83.7093C55.6413 82.848 54.9634 82.1578 54.0406 81.2184C53.4901 80.6579 52.8525 80.0087 51.9878 79.1816C51.4252 78.648 50.9247 78.0893 50.4115 77.5167C50.3281 77.4236 50.2444 77.3302 50.16 77.2364C50.0551 77.1189 49.9523 76.9993 49.8495 76.8797C49.5414 76.5213 49.2334 76.163 48.8688 75.8613C48.5206 75.5698 48.0589 75.3877 47.5972 75.2056C47.1028 75.0107 46.6083 74.8157 46.2528 74.4862C45.6994 73.9831 45.1963 73.5471 44.4081 73.8993C43.1504 74.4862 43.3182 76.3476 43.9219 77.3202C44.6528 78.4776 45.8174 79.5287 46.9142 80.5186C47.3271 80.8913 47.7304 81.2553 48.0974 81.6131C49.6066 83.0888 51.1494 84.531 52.7089 85.9564C54.3858 87.4824 56.1131 88.9916 57.8571 90.4673Z" stroke="black"/>
<path d="M43.0608 66.7386C43.0371 66.7119 43.0134 66.6852 42.9897 66.6584C42.6264 66.2488 42.2583 65.8338 42.0379 65.33C41.7696 64.7264 41.7193 64.0388 41.7361 63.3513C41.8199 60.4167 43.1782 57.6329 44.5029 54.9331L44.504 54.9309C45.3086 53.3051 46.1132 51.6792 47.0855 50.1706C47.7562 49.131 48.5946 47.672 48.8126 46.4982C49.0642 45.1399 49.299 42.5239 49.1313 42.0376C48.276 39.4719 46.2302 37.2416 43.3794 37.2248C42.5745 37.2248 39.6399 38.3316 39.0697 38.9185C38.7431 39.2533 38.2972 39.8943 37.8268 40.5704C37.3313 41.2827 36.8086 42.034 36.3699 42.5071C36.111 42.7984 35.9769 43.1678 35.8474 43.5249C35.8427 43.5378 35.838 43.5507 35.8333 43.5636C35.6488 44.0751 35.4685 44.5865 35.2883 45.098C35.108 45.6094 34.9278 46.1209 34.7433 46.6323C34.3073 47.8397 33.8881 49.0471 33.5863 50.288C33.167 51.965 32.9825 53.6922 33.0328 55.3859C33.0541 56.0265 32.9698 56.797 32.8835 57.5845C32.7665 58.6525 32.6462 59.7518 32.7813 60.6011C32.8986 61.3557 32.907 62.2193 32.9154 63.083C32.9238 63.9466 32.9322 64.8102 33.0496 65.5648C33.2173 66.6381 33.385 67.7113 33.7875 68.7007C34.1732 69.6398 34.7768 70.4782 35.3973 71.2831C37.6108 74.1151 44.2383 79.6737 49.0252 83.6886C50.7295 85.118 52.2005 86.3518 53.1559 87.1971L56.711 83.2396C54.4665 81.6598 50.5727 76.4909 47.3429 72.2036C45.6017 69.8922 44.0535 67.8371 43.0608 66.7386Z" fill="#E3E3E3"/>
<path d="M43.0608 66.7386C43.0371 66.7119 43.0134 66.6852 42.9897 66.6584C42.6264 66.2488 42.2583 65.8338 42.0379 65.33C41.7696 64.7264 41.7193 64.0388 41.7361 63.3513C41.8199 60.4167 43.1782 57.6329 44.5029 54.9331L44.504 54.9309C45.3086 53.3051 46.1132 51.6792 47.0855 50.1706C47.7562 49.131 48.5946 47.672 48.8126 46.4982C49.0642 45.1399 49.299 42.5239 49.1313 42.0376C48.276 39.4719 46.2302 37.2416 43.3794 37.2248C42.5745 37.2248 39.6399 38.3316 39.0697 38.9185C38.7431 39.2533 38.2972 39.8943 37.8268 40.5704C37.3313 41.2827 36.8086 42.034 36.3699 42.5071C36.111 42.7984 35.9769 43.1678 35.8474 43.5249C35.8427 43.5378 35.838 43.5507 35.8333 43.5636C35.6488 44.0751 35.4685 44.5865 35.2883 45.098C35.108 45.6094 34.9278 46.1209 34.7433 46.6323C34.3073 47.8397 33.8881 49.0471 33.5863 50.288C33.167 51.965 32.9825 53.6922 33.0328 55.3859C33.0541 56.0265 32.9698 56.797 32.8835 57.5845C32.7665 58.6525 32.6462 59.7518 32.7813 60.6011C32.8986 61.3557 32.907 62.2193 32.9154 63.083C32.9238 63.9466 32.9322 64.8102 33.0496 65.5648C33.2173 66.6381 33.385 67.7113 33.7875 68.7007C34.1732 69.6398 34.7768 70.4782 35.3973 71.2831C37.6108 74.1151 44.2383 79.6737 49.0252 83.6886C50.7295 85.118 52.2005 86.3518 53.1559 87.1971L56.711 83.2396C54.4665 81.6598 50.5727 76.4909 47.3429 72.2036C45.6017 69.8922 44.0535 67.8371 43.0608 66.7386Z" stroke="black"/>
<path d="M38.387 7.5572C37.7161 8.08743 36.9195 8.40119 36.1234 8.71477C35.6858 8.88714 35.2483 9.05946 34.8319 9.26764C33.6581 9.85457 32.5346 11.0116 32.7358 12.3196C32.8539 13.0757 33.3863 13.6875 33.9125 14.2923C34.5068 14.9753 35.0933 15.6493 35.0666 16.5119C35.058 16.8054 34.9739 17.09 34.8896 17.3749C34.8103 17.6434 34.7308 17.9122 34.7145 18.1889C34.5972 19.6813 36.2909 20.7881 37.7833 20.6875C39.1401 20.5961 40.3444 19.8533 41.5222 19.1268C41.64 19.0541 41.7576 18.9816 41.875 18.9099C46.7884 15.925 52.4732 14.2816 58.2082 14.114C58.3089 14.1105 58.4102 14.1075 58.5117 14.1045C59.3744 14.0791 60.2603 14.053 61.0255 13.6779C61.8975 13.2755 62.5849 12.2861 62.3166 11.3638C62.1068 10.6199 61.4305 10.2231 60.7412 9.81876C60.2185 9.51214 59.6884 9.20114 59.3485 8.73107C59.0704 8.34606 58.9356 7.886 58.8004 7.42488C58.7236 7.16297 58.6468 6.90071 58.5435 6.65165C58.0069 5.41072 56.8332 4.60579 55.6929 3.86795C53.3787 2.34195 50.9303 0.782411 48.1802 0.564411C45.7319 0.36318 43.183 1.30229 41.2378 2.74444C40.3622 3.40955 40.0868 4.26908 39.809 5.1363C39.5334 5.99644 39.2554 6.86413 38.387 7.5572Z" fill="#D7C68E"/>
<path d="M38.387 7.5572C37.7161 8.08743 36.9195 8.40119 36.1234 8.71477C35.6858 8.88714 35.2483 9.05946 34.8319 9.26764C33.6581 9.85457 32.5346 11.0116 32.7358 12.3196C32.8539 13.0757 33.3863 13.6875 33.9125 14.2923C34.5068 14.9753 35.0933 15.6493 35.0666 16.5119C35.058 16.8054 34.9739 17.09 34.8896 17.3749C34.8103 17.6434 34.7308 17.9122 34.7145 18.1889C34.5972 19.6813 36.2909 20.7881 37.7833 20.6875C39.1401 20.5961 40.3444 19.8533 41.5222 19.1268C41.64 19.0541 41.7576 18.9816 41.875 18.9099C46.7884 15.925 52.4732 14.2816 58.2082 14.114C58.3089 14.1105 58.4102 14.1075 58.5117 14.1045C59.3744 14.0791 60.2603 14.053 61.0255 13.6779C61.8975 13.2755 62.5849 12.2861 62.3166 11.3638C62.1068 10.6199 61.4305 10.2231 60.7412 9.81876C60.2185 9.51214 59.6884 9.20114 59.3485 8.73107C59.0704 8.34606 58.9356 7.886 58.8004 7.42488C58.7236 7.16297 58.6468 6.90071 58.5435 6.65165C58.0069 5.41072 56.8332 4.60579 55.6929 3.86795C53.3787 2.34195 50.9303 0.782411 48.1802 0.564411C45.7319 0.36318 43.183 1.30229 41.2378 2.74444C40.3622 3.40955 40.0868 4.26908 39.809 5.1363C39.5334 5.99644 39.2554 6.86413 38.387 7.5572Z" stroke="black"/>
<defs>
<linearGradient id="paint0_linear_201_785" x1="114.733" y1="181.637" x2="182.614" y2="184.985" gradientUnits="userSpaceOnUse">
<stop stop-color="#4D4D4D"/>
<stop offset="1"/>
</linearGradient>
<linearGradient id="paint1_linear_201_785" x1="114.726" y1="181.637" x2="182.608" y2="184.985" gradientUnits="userSpaceOnUse">
<stop/>
<stop offset="1"/>
</linearGradient>
<linearGradient id="paint2_linear_201_785" x1="15.5148" y1="184.527" x2="82.7336" y2="187.842" gradientUnits="userSpaceOnUse">
<stop stop-color="#4D4D4D"/>
<stop offset="1"/>
</linearGradient>
<linearGradient id="paint3_linear_201_785" x1="15.5133" y1="184.527" x2="82.7321" y2="187.842" gradientUnits="userSpaceOnUse">
<stop/>
<stop offset="1"/>
</linearGradient>
</defs>
</svg>
